<svg xmlns="http://www.w3.org/2000/svg" width="352.033" height="263.309" viewBox="0 0 352.033 263.309">
    <g id="Grupo_2" data-name="Grupo 2" transform="translate(2148.602 2053.507)">
      <g id="Grupo_14" data-name="Grupo 14">
        <path id="Trazado_4" data-name="Trazado 4" d="M-2148.6-1851.913c.857-3.078,1.529-6.224,2.622-9.216,1.228-3.357,3.665-5.627,7.43-5.7,16.405-.3,31.559-5.574,46.151-12.313,23.595-10.9,46.879-22.464,70.352-33.628,43.523-20.7,88.61-36.726,136.163-45.344a532.864,532.864,0,0,1,78.182-7.912c5.137-.164,8.965,1.293,11.133,6.144V-1953a29.817,29.817,0,0,0-.657,3.351,195.694,195.694,0,0,1-26.26,83.913,240.237,240.237,0,0,1-16.859,24.217c-5.855,7.63-8.722,18.855,1.168,27.221,5.525,4.674,8.146,11.25,9.164,18.39.558,3.913-1.217,5.9-5.192,5.7-4-.2-8-.565-11.994-.852q-36.324-2.609-72.649-5.214-35.3-2.531-70.6-5.054l-73.335-5.255q-33.927-2.431-67.852-4.891a12.345,12.345,0,0,1-10.836-7.36,56.576,56.576,0,0,1-3.412-9.335c-1.12-4.189-1.834-8.487-2.722-12.738Z" fill="#fff"/>
        <path id="Trazado_5" data-name="Trazado 5" d="M-1866.077-1993.208c.508-9.435-2.538-14.321-10.66-17.285-9.917-3.62-20.32-4.424-30.74-5.076-26.077-1.634-50.054,4.73-72.578,17.947-37.451,21.978-75.232,43.392-110.628,68.68-4.079,2.913-6.609,6.417-7.436,11.393-1.315,7.909-3.112,15.742-4.3,23.668-.572,3.83-2.293,5.9-5.941,6.906-3.93,1.085-7.763,2.521-12.363,4.043.236-2.335.285-3.869.56-5.361q3.021-16.394,6.123-32.771c1.727-9.145,6.612-16.1,14.248-21.426,27.655-19.275,56.018-37.414,85.43-53.9,13.787-7.727,27.331-15.934,41.419-23.065,21.4-10.835,44.475-13.986,68.184-12.106,9.772.775,19.484,2.616,29.141,4.414,3.648.679,7.17,2.383,10.566,4.006,7.052,3.37,11.94,8.318,13.409,16.606,1.516,8.552,4.045,16.931,6.277,25.346.732,2.758.114,3.918-2.849,4.339a60.212,60.212,0,0,1-20.757-.5c-19.046-3.855-38.277-5.622-57.729-3.3a120.593,120.593,0,0,0-39.944,12.042q-46.869,23.461-93.639,47.12c-1.008.507-2.03.987-3.07,1.492-1.644-5.289.173-10.311,4.573-12.83q44.142-25.281,88.3-50.531c22.589-12.869,47.114-16.713,72.665-14.6,9.555.789,19.005,2.848,28.5,4.321C-1868.314-1993.477-1867.313-1993.368-1866.077-1993.208Z" fill="#2e7ff7"/>
        <path id="Trazado_6" data-name="Trazado 6" d="M-2060.319-1985.272c-.088-1.785-.2-3.02-.2-4.256-.012-13.866.083-27.733-.055-41.6a15.64,15.64,0,0,1,5.252-12.2c6.492-6.068,14.523-8.739,23.055-9.682a102.2,102.2,0,0,1,17.758-.227c4.776.308,8.1,3.177,10.022,7.778,2.694,6.446,5.663,12.78,8.613,19.116.922,1.979.882,3.285-1.223,4.515q-30.422,17.769-60.773,35.653A17.811,17.811,0,0,1-2060.319-1985.272Z" fill="#2e7ff7"/>
      </g>
      <ellipse id="Elipse_1" data-name="Elipse 1" cx="17.877" cy="21.658" rx="17.877" ry="21.658" transform="translate(-1929.327 -1921.725)" fill="#20221d"/>
      <ellipse id="Elipse_2" data-name="Elipse 2" cx="13.064" cy="16.369" rx="13.064" ry="16.369" transform="translate(-1993.271 -1896.708)" fill="#20221d"/>
      <ellipse id="Elipse_3" data-name="Elipse 3" cx="9.282" cy="12.318" rx="9.282" ry="12.318" transform="translate(-2051.714 -1874.855)" fill="#20221d"/>
      <ellipse id="Elipse_4" data-name="Elipse 4" cx="6.735" cy="8.938" rx="6.735" ry="8.938" transform="translate(-2104.656 -1856.406)" fill="#20221d"/>
    </g>
  </svg>
  