<svg xmlns="http://www.w3.org/2000/svg" width="378.559" height="318.382" viewBox="0 0 378.559 318.382">
    <g id="Grupo_1" data-name="Grupo 1" transform="translate(859.363 2081.043)">
      <g id="Grupo_11" data-name="Grupo 11">
        <g id="Grupo_9" data-name="Grupo 9">
          <path id="Trazado_1" data-name="Trazado 1" d="M-651.729-1992.115l-.65-3.109c-.475-2.266-.936-4.444-1.319-6.643-5.083-29.139,7.128-56,31.869-70.09,16.518-9.394,35.224-11.522,55.592-6.3l-5.2,20.291c-15.153-3.886-28.239-2.506-40.031,4.214-17.1,9.742-25.176,27.794-21.6,48.29.338,1.953.752,3.9,1.176,5.906l.68,3.268Z" fill="#2e7ff7"/>
        </g>
        <g id="Grupo_10" data-name="Grupo 10">
          <path id="Trazado_2" data-name="Trazado 2" d="M-858.89-1983.447c-2.8-26.531,6.863-50.586,28.719-71.5a91.007,91.007,0,0,1,52.279-24.909c28.652-3.718,55.751,9.44,69.011,33.552,8.212,14.942,10.273,31.721,6.131,49.865l-20.424-4.664c3.012-13.173,1.682-24.654-4.066-35.107-9.067-16.507-27.87-25.482-47.952-22.874a69.556,69.556,0,0,0-40.5,19.269c-17.168,16.431-24.485,34.145-22.368,54.171Z" fill="#2e7ff7"/>
        </g>
      </g>
      <g id="Grupo_13" data-name="Grupo 13">
        <g id="Grupo_12" data-name="Grupo 12">
          <path id="Trazado_3" data-name="Trazado 3" d="M-750.524-1919.682c-12.706,2.525-24.617,2.441-36.154-1.831-21.371-7.912-33.812-23.406-36.193-45.965-2.662-25.224,7.691-45.751,25.544-62.835a80.485,80.485,0,0,1,46.388-22.09c24.213-3.149,47.2,7.684,58.483,28.214,7.346,13.365,8.472,27.714,5.1,42.486-.292,1.277-.6,2.551-1.017,4.338,24.347-8.062,48.264-8.01,72.512.231-.675-3.321-1.372-6.375-1.91-9.457-4.286-24.57,5.734-47.234,26.735-59.2,15.048-8.57,31.221-9.506,47.806-5.254,31.95,8.19,56.825,35.435,61.721,67.545,5.032,33-17.3,61.658-50.589,64.432-7.288.607-14.7-.208-22.071-.368,11.042,26.4,12.218,53.674,2.008,81.12-7.775,20.9-20.961,48.28-39.362,60.844-37.953,25.913-85.816,15.079-123.138-11.42a103.824,103.824,0,0,1-41.045-58.736C-762.371-1871.95-760.533-1895.845-750.524-1919.682Z" fill="#fff"/>
        </g>
      </g>
    </g>
  </svg>
  