<svg xmlns="http://www.w3.org/2000/svg" width="306.142" height="295.791" viewBox="0 0 306.142 295.791">
    <g id="Grupo_6" data-name="Grupo 6" transform="translate(-479.349 2069.748)">
      <g id="Grupo_18" data-name="Grupo 18">
        <path id="Trazado_20" data-name="Trazado 20" d="M479.349-1796.974l94.954,23.017v-175.756l-94.954-23.039ZM628.4-2069.748a54.353,54.353,0,0,0-54.4,54.381c0,22.92,34.362,86.876,54.4,121.233,20.044-34.357,54.4-98.313,54.4-121.233a54.351,54.351,0,0,0-54.4-54.381Zm-41.031,54.381c0-22.88,18.131-41.983,41.031-41.983s41.037,19.1,41.037,41.983A40.726,40.726,0,0,1,628.4-1974.33a40.721,40.721,0,0,1-41.031-41.037Zm103.182,218.393,94.945,23.017v-175.756l-94.945-23.039Z" fill="#fff" fill-rule="evenodd"/>
        <path id="Trazado_21" data-name="Trazado 21" d="M584.662-1949.713v175.756l95.527-23.017v-175.777l-3.609,1.109L628.4-1871.614l-39.447-79.21Z" fill="#fdb54e" fill-rule="evenodd"/>
      </g>
      <path id="Trazado_22" data-name="Trazado 22" d="M604.525-2015.367a23.653,23.653,0,0,0,23.87,23.875,23.636,23.636,0,0,0,23.851-23.875,23.634,23.634,0,0,0-23.851-23.865,23.651,23.651,0,0,0-23.87,23.865Z" fill="#fdb54e" fill-rule="evenodd"/>
    </g>
  </svg>
  