<svg xmlns="http://www.w3.org/2000/svg" width="282.067" height="353.045" viewBox="0 0 282.067 353.045">
    <g id="Grupo_3" data-name="Grupo 3" transform="translate(-1142.637 2098.375)">
      <g id="Grupo_15" data-name="Grupo 15">
        <path id="Trazado_7" data-name="Trazado 7" d="M1283.948-1933.54c5.043,1.188,10.38,2.122,15.517,3.707,28.968,8.939,56.484,21.392,83.27,35.421,12.923,6.768,25.351,14.5,37.867,22.02,5.152,3.1,5.216,4.727,1.508,9.26a142.233,142.233,0,0,0-26.4,50.206c-2.855,9.66-8.535,15.345-17.954,18.616-22.651,7.868-44.8,17.017-65.086,30.006-7.423,4.754-14.387,10.247-21.407,15.6-5.38,4.107-9.477,4.657-14.28.565-23.281-19.834-50.511-32.4-78.76-43.123-3.9-1.482-7.788-3.019-11.741-4.352-7.358-2.48-11.789-7.536-14.015-14.893a153.919,153.919,0,0,0-20.04-42.874c-2.219-3.238-4.6-6.37-7.03-9.456-3.962-5.034-3.842-6.133,1.585-9.806,18.055-12.219,37.364-22.2,57.022-31.495,21.875-10.347,44.02-20.083,67.375-26.709C1275.374-1931.978,1279.515-1932.6,1283.948-1933.54Z" fill="#fff"/>
        <path id="Trazado_8" data-name="Trazado 8" d="M1393.49-1909.247c-5.935-2.98-11.14-5.407-16.117-8.235-1.114-.633-1.746-2.6-2.064-4.074-3.5-16.2-6.992-32.4-10.244-48.644-.719-3.592-2.268-5.592-5.844-6.522-7.8-2.032-12.132-7.2-13.62-15.185-1.934-10.374-4.365-20.655-6.428-31.007a6.067,6.067,0,0,0-4.774-5.27,180.625,180.625,0,0,0-62.646-6.734,188.5,188.5,0,0,0-38.035,6.494c-3.36.939-5.068,2.577-5.736,6.134-1.925,10.251-4.374,20.4-6.357,30.645-1.446,7.464-5.371,12.639-12.763,14.646-4.213,1.143-6.036,3.478-6.873,7.793-3.059,15.783-6.623,31.468-9.832,47.224a7.468,7.468,0,0,1-4.665,6.01c-4.354,1.912-8.572,4.136-13.6,6.6.256-2.108.321-3.5.6-4.842,4.48-21.385,9.083-42.744,13.426-64.157,1.176-5.794,4.026-9.911,9.778-11.14,6.505-1.389,9.019-5.2,10-11.566,1.549-10.054,4.11-19.949,6.126-29.935,1.042-5.158,3.668-8.877,8.9-10.17,10.944-2.7,21.89-5.419,32.914-7.759,3.328-.707,4.848-1.671,4.765-5.353-.227-10.066-.106-20.142-.062-30.214.042-9.289,4.545-13.773,13.847-13.83q9.582-.06,19.164,0c8.969.063,13.551,4.671,13.6,13.729.053,9.949.178,19.9-.063,29.845-.094,3.883,1.322,5.1,5.045,5.861,10.8,2.195,21.513,4.877,32.217,7.535,5.456,1.354,8.3,5.121,9.393,10.628,2.29,11.557,4.893,23.053,7.235,34.6.526,2.595,1.684,4.277,4.3,4.826,9.534,2,13.717,7.951,15.415,17.543,3.572,20.173,8.286,40.143,12.51,60.2C1393.222-1912.522,1393.25-1911.427,1393.49-1909.247Z" fill="#2e7ff7"/>
        <path id="Trazado_9" data-name="Trazado 9" d="M1322.348-1998.762c.134,2.488-1.748,1.877-3.482,1.578-6.04-1.043-12.047-2.4-18.129-3.041a154.03,154.03,0,0,0-51.232,2.713c-4.708,1.089-5.007.9-4.064-3.849,2.282-11.5-.576-10.047,12.545-12.237a157.613,157.613,0,0,1,57.472,1.056c3.454.695,5.146,2.3,5.516,5.726C1321.25-2004.26,1321.828-2001.737,1322.348-1998.762Z" fill="#2e7ff7"/>
        <path id="Trazado_10" data-name="Trazado 10" d="M1264.8-1952.68c-3.786.166-4.851-1.069-4.506-4.5.159-1.578.02-3.187.027-4.781.023-5.209.594-5.9,5.96-5.934q17.461-.119,34.925.007c5.112.037,5.731.788,5.763,5.756.06,9.373.06,9.39-9.087,9.2C1295.31-1952.983,1273.244-1953.05,1264.8-1952.68Z" fill="#2e7ff7"/>
        <path id="Trazado_11" data-name="Trazado 11" d="M1215.651-1943.385c.876-4.629,1.572-9.073,2.645-13.424a4.4,4.4,0,0,1,2.732-2.559c7.9-2.132,15.851-4.066,23.8-6.016,2-.491,3.085.481,3.118,2.481a84.118,84.118,0,0,1-.117,9.531,3.921,3.921,0,0,1-2.314,2.751C1235.835-1948.145,1226.1-1945.883,1215.651-1943.385Z" fill="#2e7ff7"/>
        <path id="Trazado_12" data-name="Trazado 12" d="M1351.619-1942.984c-1.553-.348-2.466-.525-3.365-.758-8.159-2.109-16.285-4.362-24.49-6.275-3.1-.724-4.856-1.85-4.505-5.331a65.858,65.858,0,0,0,.047-6.969c-.014-2.513,1.039-3.675,3.654-3.025q11.205,2.784,22.419,5.534a5.329,5.329,0,0,1,4.254,4.884C1350.219-1951.1,1350.9-1947.3,1351.619-1942.984Z" fill="#2e7ff7"/>
      </g>
      <path id="Trazado_13" data-name="Trazado 13" d="M1261.053-1868.527c-.135-5.625-1.451-10.756-5.48-14.835-4.28-4.335-10.015-4.384-14.416-.228-7.486,7.069-7.533,22.653-.091,29.782,4.376,4.192,10.113,4.215,14.421-.062C1259.557-1857.912,1260.906-1863.035,1261.053-1868.527Z" fill="#20221d"/>
      <path id="Trazado_14" data-name="Trazado 14" d="M1331.823-1868.26c-.078-5.942-1.472-11.3-5.842-15.453-4.146-3.944-9.67-3.9-13.888-.037-7.673,7.025-7.753,22.911-.151,30.042,4.408,4.134,10.145,4.071,14.424-.257C1330.3-1857.942,1331.634-1862.945,1331.823-1868.26Z" fill="#20221d"/>
    </g>
  </svg>
  