<svg xmlns="http://www.w3.org/2000/svg" width="380.628" height="277.425" viewBox="0 0 380.628 277.425">
    <g id="Grupo_5" data-name="Grupo 5" transform="translate(1511.648 2060.565)">
      <g id="Grupo_17" data-name="Grupo 17">
        <path id="Trazado_19" data-name="Trazado 19" d="M-1417.543-2032.028h33.455v-28.537h122.979v28.537h33.942v248.888h-62.477v-87.9h-65.91v87.9h-61.99v-248.888Z" fill="#fff" fill-rule="evenodd"/>
        <rect id="Rectángulo_1" data-name="Rectángulo 1" width="27.062" height="27.555" transform="translate(-1308.831 -2033.125)" fill="#20221d"/>
        <rect id="Rectángulo_2" data-name="Rectángulo 2" width="27.062" height="27.062" transform="translate(-1363.428 -1924.905)" fill="#20221d"/>
        <rect id="Rectángulo_3" data-name="Rectángulo 3" width="27.062" height="26.572" transform="translate(-1363.428 -1978.522)" fill="#20221d"/>
        <rect id="Rectángulo_4" data-name="Rectángulo 4" width="27.062" height="27.555" transform="translate(-1363.428 -2033.125)" fill="#20221d"/>
        <rect id="Rectángulo_5" data-name="Rectángulo 5" width="27.062" height="27.062" transform="translate(-1308.831 -1924.905)" fill="#20221d"/>
        <rect id="Rectángulo_6" data-name="Rectángulo 6" width="27.062" height="26.572" transform="translate(-1308.831 -1978.522)" fill="#20221d"/>
      </g>
      <rect id="Rectángulo_7" data-name="Rectángulo 7" width="82.338" height="160.894" transform="translate(-1511.648 -1944.034)" fill="#2e7ff7"/>
      <rect id="Rectángulo_8" data-name="Rectángulo 8" width="27.062" height="27.555" transform="translate(-1484.01 -1925.152)" fill="#fff"/>
      <rect id="Rectángulo_9" data-name="Rectángulo 9" width="27.062" height="27.555" transform="translate(-1405.617 -1925.152)" fill="#20221d"/>
      <rect id="Rectángulo_10" data-name="Rectángulo 10" width="27.062" height="27.555" transform="translate(-1484.01 -1871.042)" fill="#fff"/>
      <rect id="Rectángulo_11" data-name="Rectángulo 11" width="27.062" height="27.555" transform="translate(-1405.617 -1871.042)" fill="#20221d"/>
      <rect id="Rectángulo_12" data-name="Rectángulo 12" width="82.338" height="160.894" transform="translate(-1213.359 -1944.034)" fill="#2e7ff7"/>
      <rect id="Rectángulo_13" data-name="Rectángulo 13" width="27.062" height="27.555" transform="translate(-1264.006 -1925.152)" fill="#20221d"/>
      <rect id="Rectángulo_14" data-name="Rectángulo 14" width="27.062" height="27.555" transform="translate(-1185.721 -1925.152)" fill="#fff"/>
      <rect id="Rectángulo_15" data-name="Rectángulo 15" width="27.062" height="27.555" transform="translate(-1264.006 -1871.042)" fill="#20221d"/>
      <rect id="Rectángulo_16" data-name="Rectángulo 16" width="27.062" height="27.555" transform="translate(-1185.721 -1871.042)" fill="#fff"/>
    </g>
  </svg>
  