<svg xmlns="http://www.w3.org/2000/svg" width="356.29" height="324.218" viewBox="0 0 356.29 324.218">
    <g id="Grupo_4" data-name="Grupo 4" transform="translate(-1756.777 2083.961)">
      <g id="Grupo_16" data-name="Grupo 16">
        <path id="Trazado_15" data-name="Trazado 15" d="M2016.628-2047.241c-17.527,12.507-32.667,26-42.87,38.344a92.083,92.083,0,0,0-8.228,11.355,25.136,25.136,0,0,1,14.729,1.481c.493-.576.987-1.234,1.564-1.892,10.367-12.508,26.165-26.413,44.432-39.167,1.728-1.234,3.455-2.386,5.266-3.538A33.353,33.353,0,0,0,2016.628-2047.241Z" fill-rule="evenodd"/>
        <path id="Trazado_16" data-name="Trazado 16" d="M2044.522-2009.637v.246l-2.222,18.1-10.861,86.808a34.456,34.456,0,0,1-9.792,19.913L1904.065-1766.9a24.435,24.435,0,0,1-34.56,0l-105.569-105.569a24.434,24.434,0,0,1,0-34.559l117.583-117.583a34.43,34.43,0,0,1,19.995-9.792l104.829-13.165a33.12,33.12,0,0,1,10.285.329c-17.527,12.507-32.667,26-42.87,38.344a92.083,92.083,0,0,0-8.228,11.355,24.585,24.585,0,0,0-12.1,6.665,24.335,24.335,0,0,0,0,34.477,24.336,24.336,0,0,0,34.478,0,23.835,23.835,0,0,0,6.417-11.438,24.053,24.053,0,0,0-.987-14.811,23.143,23.143,0,0,0-5.43-8.228,23.37,23.37,0,0,0-7.653-5.184c.493-.576.987-1.234,1.564-1.892,10.367-12.508,26.165-26.413,44.432-39.167,1.728-1.234,3.455-2.386,5.266-3.538a35.947,35.947,0,0,1,3.292,2.879A34.062,34.062,0,0,1,2044.522-2009.637Z" fill="#fff" fill-rule="evenodd"/>
        <path id="Trazado_17" data-name="Trazado 17" d="M2110.925-2077.933c-5.267-7.57-17.363-7.981-36.04-1.4-16.211,5.76-35.546,16.21-54.637,29.458-1.234.823-2.468,1.728-3.62,2.633-17.527,12.507-32.667,26-42.87,38.344a92.083,92.083,0,0,0-8.228,11.355c-4.032,6.747-5.761,12.507-5.1,17.2a13.263,13.263,0,0,0,2.057,9.874,14.3,14.3,0,0,0,1.4,1.728c5.349,5.266,15.552,5.678,30.445.905a24.053,24.053,0,0,0-.987-14.811c-15.387,5.1-21.065,3.292-22.134,2.057.823-3.209,3.29-8.228,9.051-15.469.493-.576.987-1.234,1.564-1.892,10.367-12.508,26.165-26.413,44.432-39.167,1.728-1.234,3.455-2.386,5.266-3.538,16.539-11.027,33-19.666,46.82-24.521,16.209-5.76,22.463-4.031,23.779-2.8a.287.287,0,0,0,.082.165l.083.083c-2.715,9.627-19.83,31.761-55.212,56.363-.824.576-1.728,1.153-2.551,1.729v.246l-2.222,18.1c3.621-2.305,7.242-4.691,10.862-7.241,32.008-22.3,62.042-52.086,59.737-69.694A13.366,13.366,0,0,0,2110.925-2077.933Z" fill="#2e7ff7"/>
      </g>
      <path id="Trazado_18" data-name="Trazado 18" d="M1989.5-1937.908a29.642,29.642,0,0,0-6.932-1.3,106.127,106.127,0,0,1-11.132-1.295,10.6,10.6,0,0,1-4.332-1.829c-.547-.418-.562-.751-.064-1.228a6.814,6.814,0,0,1,2.776-1.682,24.105,24.105,0,0,0,9.673-5.623c2.072-1.928,3.839-3.992,4.168-7.01.408-3.748.061-7.3-2.116-10.49-2.03-2.977-4.921-5.038-7.757-7.15-.378-.281-.472-.042-.531.3-.136.818-.341,1.628-.436,2.45a14.289,14.289,0,0,1-3.1,7.257c-2.317,2.972-5.466,4.7-8.87,6.037-2.539,1-5.127,1.879-7.659,2.894a3.617,3.617,0,0,1-2.247.232,16.823,16.823,0,0,0-6.673-.351,14.023,14.023,0,0,0-4.641,2.013,6.828,6.828,0,0,1-6.666.488c-1.2-.543-2.4-1.111-3.6-1.658-2.107-.958-4.249-1.454-6.487-.438a.6.6,0,0,1-.7-.157,37.943,37.943,0,0,0-4.234-2.812,28.04,28.04,0,0,1-3.472-2.4,8.147,8.147,0,0,1-3.087-6.113,40.229,40.229,0,0,1,.027-7.146c.061-.436-.026-.6-.494-.436-.783.281-1.591.5-2.364.806a12.044,12.044,0,0,0-5.655,4.086c-2.66,3.768-2.7,7.8-.918,11.93a.81.81,0,0,1-.049.984,3.524,3.524,0,0,0-.56,1.877,108.423,108.423,0,0,0-.394,12.291c.018.516-.114.731-.641.76a48.314,48.314,0,0,1-6.72.138,34.9,34.9,0,0,0-4.9-.376,4.618,4.618,0,0,0-2.856,1.049.986.986,0,0,0-.312,1.208,11.94,11.94,0,0,0,4.024,5.776c1.679,1.363,3.564,2.423,5.327,3.66.438.306.541.5.1.9-1.343,1.213-2.627,2.493-3.981,3.694-4.02,3.569-8.312,6.805-12.553,10.1a6.324,6.324,0,0,0-2.527,5.532c.178,4.819.295,9.639.861,14.437a45.192,45.192,0,0,0,1.821,9.433,28.517,28.517,0,0,0,6.435,10.8,21.175,21.175,0,0,0,7.775,4.675c6.8,2.671,13.914,3.453,21.144,3.539a70.012,70.012,0,0,0,7.834-.427c6.429-.7,11.624-3.781,16.041-8.315,2.818-2.9,4.428-6.534,6.025-10.176,1.9-4.325,3.053-8.9,4.658-13.327,2.146-5.915,4.57-11.73,6.39-17.762a.8.8,0,0,1,.3-.5c1.881-1.121,2.8-2.972,3.757-4.823.346-.671.438-1.77,1.114-1.9.648-.126,1.277.742,1.916,1.171a27.146,27.146,0,0,0,9.215,4.367,1.973,1.973,0,0,0,2.663-1.946,1.157,1.157,0,0,1,.907-1.182,1.858,1.858,0,0,1,2.472,1.082,7.519,7.519,0,0,0,1.888,2.843,1.076,1.076,0,0,0,1.1.257,23.058,23.058,0,0,0,9.435-5c2.207-1.993,3.89-4.321,4.161-7.41C1994.174-1934.721,1992.907-1936.7,1989.5-1937.908Zm-84.542-15.741.152-.133h0l-.152.133c.087.327.361.51.573.739-.212-.229-.486-.412-.573-.739-.071-.078-.141-.156-.21-.235C1904.821-1953.805,1904.891-1953.727,1904.962-1953.649Zm8.535,22.777c-.154-.089-.267.017-.388.084.121-.067.234-.176.388-.085Z" fill="#20221d"/>
    </g>
  </svg>
  