<svg xmlns="http://www.w3.org/2000/svg" width="328.201" height="329.789" viewBox="0 0 328.201 329.789">
    <g id="Grupo_8" data-name="Grupo 8" transform="translate(-2314.439 2079.332)">
      <line id="Línea_1" data-name="Línea 1" x1="13.819" y2="13.404" transform="translate(2420.101 -1812.405)" fill="none" stroke="#fff" stroke-miterlimit="10" stroke-width="2.14"/>
      <g id="Grupo_22" data-name="Grupo 22">
        <g id="Grupo_21" data-name="Grupo 21">
          <path id="Trazado_26" data-name="Trazado 26" d="M2638.688-1979.366l-22.193-5.693-11.387-2.9c-.3,5.03-.773,10.032-1.437,15.008a232.657,232.657,0,0,1-82.167,149.6l-42.949,34.989h0l-37.809-30.705-5.168-4.284c-1.852-1.548-3.676-3.1-5.472-4.7l-6.744,6.551-13.625,13.21a300.6,300.6,0,0,1-95.075-231.162l73.241-39.882,5.942,3.207a174.773,174.773,0,0,0,84.71,20.866,174.744,174.744,0,0,0,84.682-20.866l5.942-3.207,73.241,39.882A299.957,299.957,0,0,1,2638.688-1979.366Z" fill="#fff"/>
          <path id="Trazado_27" data-name="Trazado 27" d="M2613.437-1971.9l-.241,1.494a253.847,253.847,0,0,1-88.419,154.859l-46.223,37.625-44.716-36.327-15.787,15.315,1.151.986c.9.769,1.819,1.537,2.741,2.307l56.612,46.1,56.38-45.908a301.618,301.618,0,0,0,65.622-76.325,301.66,301.66,0,0,0,36.718-92.651l.28-1.3Z" fill="#fdb54e"/>
        </g>
        <path id="Trazado_28" data-name="Trazado 28" d="M2552.908-1966a40.316,40.316,0,0,0-9.444-1.777c-5.064-.525-10.169-.706-15.168-1.765a14.423,14.423,0,0,1-5.9-2.492c-.746-.569-.766-1.022-.087-1.673a9.281,9.281,0,0,1,3.782-2.291,32.846,32.846,0,0,0,13.18-7.662c2.823-2.627,5.23-5.439,5.679-9.551.556-5.108.082-9.944-2.883-14.293-2.766-4.057-6.705-6.865-10.57-9.742-.514-.384-.643-.058-.722.411-.186,1.115-.466,2.218-.594,3.339a19.473,19.473,0,0,1-4.218,9.888c-3.156,4.048-7.448,6.4-12.086,8.224-3.458,1.364-6.985,2.561-10.435,3.944a4.928,4.928,0,0,1-3.062.316,22.886,22.886,0,0,0-9.091-.478,19.1,19.1,0,0,0-6.324,2.742,9.3,9.3,0,0,1-9.082.666c-1.641-.741-3.267-1.514-4.907-2.26-2.869-1.305-5.789-1.981-8.838-.6a.819.819,0,0,1-.952-.215,52.258,52.258,0,0,0-5.769-3.832,38.084,38.084,0,0,1-4.731-3.27,11.1,11.1,0,0,1-4.206-8.329,54.794,54.794,0,0,1,.037-9.737c.082-.594-.035-.821-.673-.593-1.067.382-2.168.679-3.222,1.1a16.423,16.423,0,0,0-7.7,5.568c-3.624,5.135-3.678,10.627-1.25,16.255a1.1,1.1,0,0,1-.066,1.341,4.8,4.8,0,0,0-.764,2.558,147.408,147.408,0,0,0-.536,16.746c.024.7-.156,1-.873,1.036a65.871,65.871,0,0,1-9.158.188,47.586,47.586,0,0,0-6.671-.513,6.309,6.309,0,0,0-3.893,1.429,1.345,1.345,0,0,0-.424,1.647,16.27,16.27,0,0,0,5.483,7.87c2.288,1.857,4.855,3.3,7.259,4.986.6.418.736.677.132,1.222-1.829,1.654-3.578,3.4-5.423,5.034-5.479,4.863-11.327,9.272-17.1,13.767a8.62,8.62,0,0,0-3.443,7.537c.244,6.567.4,13.134,1.173,19.671a61.681,61.681,0,0,0,2.481,12.853,38.863,38.863,0,0,0,8.768,14.71c2.955,3.055,6.715,4.844,10.595,6.37,9.259,3.639,18.957,4.7,28.808,4.822a95.674,95.674,0,0,0,10.675-.582c8.759-.959,15.837-5.152,21.856-11.33,3.84-3.944,6.032-8.9,8.209-13.865,2.583-5.893,4.16-12.13,6.347-18.158,2.923-8.059,6.227-15.983,8.707-24.2a1.083,1.083,0,0,1,.412-.688c2.563-1.527,3.822-4.049,5.12-6.571.47-.914.6-2.411,1.517-2.59.883-.171,1.74,1.012,2.61,1.6,3.89,2.613,7.916,4.923,12.557,5.95,2.065.456,3.579-.578,3.628-2.651a1.578,1.578,0,0,1,1.236-1.612,2.534,2.534,0,0,1,3.368,1.475,10.252,10.252,0,0,0,2.573,3.874,1.464,1.464,0,0,0,1.494.35,31.43,31.43,0,0,0,12.855-6.812c3.007-2.716,5.3-5.888,5.67-10.1C2559.271-1961.654,2557.545-1964.35,2552.908-1966Zm-115.191-21.448.208-.181h0l-.208.181c.119.445.493.694.782,1.006-.289-.312-.663-.561-.782-1.006q-.144-.159-.286-.32Q2437.573-1987.6,2437.717-1987.444Zm11.63,31.035c-.21-.121-.364.022-.529.113.165-.091.319-.238.529-.115Z" fill="#20221d"/>
      </g>
    </g>
  </svg>
  