<svg xmlns="http://www.w3.org/2000/svg" xmlns:xlink="http://www.w3.org/1999/xlink" width="186.109" height="62.27" viewBox="0 0 186.109 62.27">
    <defs>
      <clipPath id="clip-path">
        <rect id="Rectángulo_2" data-name="Rectángulo 2" width="186.109" height="62.27" fill="none"/>
      </clipPath>
    </defs>
    <g id="Grupo_3" data-name="Grupo 3" clip-path="url(#clip-path)">
      <path id="Trazado_44" data-name="Trazado 44" d="M139.831,62.269a34.129,34.129,0,0,1-12.242-2.049,12.251,12.251,0,0,1-4.5-2.706,16.5,16.5,0,0,1-3.726-6.249,26.209,26.209,0,0,1-1.054-5.46c-.328-2.777-.4-5.567-.5-8.356a3.661,3.661,0,0,1,1.463-3.2c2.456-1.909,4.941-3.782,7.269-5.848.784-.7,1.527-1.436,2.3-2.138.256-.232.2-.342-.056-.519-1.022-.716-2.113-1.329-3.085-2.118a6.912,6.912,0,0,1-2.33-3.343.572.572,0,0,1,.181-.7,2.679,2.679,0,0,1,1.654-.607,20.248,20.248,0,0,1,2.835.218,27.955,27.955,0,0,0,3.892-.08c.3-.017.382-.141.371-.44a62.584,62.584,0,0,1,.228-7.114,2.034,2.034,0,0,1,.325-1.087.469.469,0,0,0,.028-.57A6.681,6.681,0,0,1,133.418,3,6.978,6.978,0,0,1,136.692.631c.447-.178.915-.3,1.369-.466.27-.1.321,0,.286.252a23.269,23.269,0,0,0-.015,4.136,4.712,4.712,0,0,0,1.787,3.538,16.187,16.187,0,0,0,2.011,1.389,22.154,22.154,0,0,1,2.452,1.628.347.347,0,0,0,.4.091,4.34,4.34,0,0,1,3.756.253c.7.317,1.388.645,2.085.96a3.953,3.953,0,0,0,3.86-.283,8.124,8.124,0,0,1,2.687-1.165,9.731,9.731,0,0,1,3.864.2,2.093,2.093,0,0,0,1.3-.134c1.467-.588,2.965-1.1,4.435-1.676a11.561,11.561,0,0,0,5.136-3.494,8.268,8.268,0,0,0,1.792-4.2c.055-.476.173-.945.253-1.418.033-.2.088-.338.307-.175a18.286,18.286,0,0,1,4.491,4.138,8.638,8.638,0,0,1,1.225,6.072,6.468,6.468,0,0,1-2.413,4.057,13.952,13.952,0,0,1-5.6,3.255,3.952,3.952,0,0,0-1.607.974c-.288.276-.279.469.038.71a6.132,6.132,0,0,0,2.508,1.059,61.509,61.509,0,0,0,6.446.75,17.153,17.153,0,0,1,4.014.755,3.318,3.318,0,0,1,2.521,3.932,6.5,6.5,0,0,1-2.409,4.289,13.358,13.358,0,0,1-5.463,2.894.622.622,0,0,1-.635-.149,4.352,4.352,0,0,1-1.094-1.645,1.076,1.076,0,0,0-1.431-.626.669.669,0,0,0-.525.684,1.142,1.142,0,0,1-1.542,1.126,15.724,15.724,0,0,1-5.336-2.527c-.37-.248-.734-.751-1.109-.678-.391.076-.445.712-.645,1.1a6.236,6.236,0,0,1-2.176,2.792.455.455,0,0,0-.175.292c-1.054,3.491-2.458,6.857-3.7,10.28-.929,2.561-1.6,5.21-2.7,7.714a18.988,18.988,0,0,1-3.488,5.89,15.036,15.036,0,0,1-9.288,4.813,40.722,40.722,0,0,1-4.536.247M134.664,12.58a1.291,1.291,0,0,0-.74-.627c.164.238.269.524.563.641l.121.136c.051.189.209.294.332.427a28.576,28.576,0,0,0,4.27,3.671,3.426,3.426,0,0,1,1.585,3.223c-.055.786-.01,1.579-.01,2.081a14.637,14.637,0,0,0,.295-2.347,3.556,3.556,0,0,0-1.546-3.366c-1.628-1.236-3.276-2.446-4.838-3.766a.059.059,0,0,0-.033-.073m29.54,16.3a3.706,3.706,0,0,0,.263-1.923,8.657,8.657,0,0,0-.408,1.941,3.985,3.985,0,0,1-3.354,3.305,21.478,21.478,0,0,1-10.058-.289c-.221-.245-.523-.2-.8-.255a1.4,1.4,0,0,0,.81.391c.168.073.333.154.5.217a16.41,16.41,0,0,0,9.493.449c2.092-.48,3.087-1.346,3.551-3.836M139.1,13.128a.278.278,0,0,0,.239.141l.167.085a.689.689,0,0,0,1.135.076c.129-.122.271-.23.407-.345a2.723,2.723,0,0,0,.95-1.252.848.848,0,0,0-.255-.995.761.761,0,0,0-.97.04,2.335,2.335,0,0,1-.8.4c-.717.171-1.2-.238-1.092-.959.063-.426.2-.84.269-1.265a.748.748,0,0,0-.649-.989,4.529,4.529,0,0,0-.689-.1,7.93,7.93,0,0,1-1.384-.167c-.128-.035-.262-.019-.289-.2-.057-.373-.095-.79.228-1.018.348-.246.3-.436.049-.648a1.175,1.175,0,0,1-.288-1.478c.168-.433.311-.876.459-1.317.031-.093.165-.189-.013-.327a10.3,10.3,0,0,0-2.1,2.922,3.453,3.453,0,0,0,.492,3.7,14.264,14.264,0,0,0,4.133,3.7m13.778,39.935a1.821,1.821,0,0,0,.119-.157c1.258-2.082,2.258-4.3,3.338-6.471a95.888,95.888,0,0,0,4.881-12.056c.2-.59.205-.591-.407-.5a21.379,21.379,0,0,1-11.916-1.536,5.865,5.865,0,0,1-3.265-3.738,33.694,33.694,0,0,1-1.094-4.452,3.026,3.026,0,0,0-1.67-2.187c-.039.24-.064.435-.1.628a9.166,9.166,0,0,1-1.275,3.693c-1.438,1.976-3.523,2.712-5.743.894a9.906,9.906,0,0,1-2.014-2.2c-.152-.23-.243-.335-.519-.106a111.206,111.206,0,0,0-10.714,9.636,16.46,16.46,0,0,0-1.892,2.243c-.2.1-.272.331-.435.469-.318.27-.271.5.018.776.457.435.906.883,1.318,1.36a1.8,1.8,0,0,1,.318,2,.744.744,0,0,1-1.232.386,3.112,3.112,0,0,0-.826-.456c-.3-.081-.539-.076-.44.37s.148.885.216,1.328c.308,2.021.45,4.067.89,6.069a11.732,11.732,0,0,0,1.832,4.493,11.059,11.059,0,0,0,4.674,3.464,26.44,26.44,0,0,0,8.991,2.1,25.786,25.786,0,0,0,11.717-1.581,9.925,9.925,0,0,0,5.235-4.47m28.872-28.3a.81.81,0,0,1-.528.484,2.893,2.893,0,0,1-1.217.24,33.067,33.067,0,0,1-7.283-.759c-1.434-.295-2.852-.653-4.262-1.046-.152-.042-.372-.215-.432.1-.127.67-.226,1.345-.361,2.013-.042.209.2.342.042.6-.46.742-.436.759.255,1.261.161.117.329.226.5.332,1.058.671,2.23,1.118,3.33,1.706.566.3.842.218,1.163-.356.121-.217.209-.452.311-.678.171-.379.326-.766.517-1.134.154-.3.332-.394.644-.1a1.663,1.663,0,0,0,1.934.351c.683-.3.785-.247,1.211.4a4.065,4.065,0,0,1,.371.815,12.679,12.679,0,0,0,.588,1.536c.106.2.213.332.461.262a6.185,6.185,0,0,0,4.27-3.08,7.532,7.532,0,0,0,.657-2.8.806.806,0,0,0-.378-.8,4.647,4.647,0,0,0-2.7-.75,34.8,34.8,0,0,1-10.215-1.929,28.563,28.563,0,0,1-7.035-3.281,5.942,5.942,0,0,1-2.788-3.8c-.115-.587-.265-1.168-.385-1.754a.511.511,0,0,0-.482-.466,5.567,5.567,0,0,0-3.129.376,23.984,23.984,0,0,0-3.474,2.058,6.433,6.433,0,0,1-4.737,1.12c-.212-.04-.513.013-.577-.291a.961.961,0,0,1,.227-.884,1.721,1.721,0,0,1,.588-.37,1.394,1.394,0,0,0,.591-.446c.248-.35.179-.566-.231-.7a7.714,7.714,0,0,0-3.928-.4,4.443,4.443,0,0,0-3.741,3.107c-.155.49-.266.961.261,1.333a2.181,2.181,0,0,1,.457.526,3.555,3.555,0,0,0,3.89,1.259,32.227,32.227,0,0,1,7.135-.708c3.2.07,6.383.334,9.57.575,1.35.1,2.588.39,3.136,1.854a.711.711,0,0,0,.492.386c1.54.535,3.073,1.087,4.613,1.622a34.914,34.914,0,0,0,8.614,2.063c.673.055,1.348.089,2.058.135M175.4,4.258c-.05.2.072.306.136.431a1.472,1.472,0,0,1-.249,1.672,1.058,1.058,0,0,1-1.241.287.969.969,0,0,0-1.12.346A1.14,1.14,0,0,0,172.8,8.3a4.642,4.642,0,0,1,.611,1.081c.065.247.232.524-.009.746a.85.85,0,0,1-.892.151,4.136,4.136,0,0,1-.9-.536,1.324,1.324,0,0,0-1.493-.2c-.493.328-.3.9-.213,1.385.027.147.092.287.114.434a3.232,3.232,0,0,1,.056.643c-.02.4-.237.559-.638.469a2.5,2.5,0,0,1-1.127-.707,1.858,1.858,0,0,0-1.106-.523c-.848-.08-1.177.316-.928,1.14.1.333.255.651.349.986a.72.72,0,0,1-.32.868c-.333.209-.58-.01-.8-.208a3.879,3.879,0,0,1-.539-.649,2.182,2.182,0,0,0-.573-.618c-.729-.465-1.53-.5-1.715.644a2.081,2.081,0,0,0,.161,1.17,3.7,3.7,0,0,0,3.967,2.19,24.3,24.3,0,0,0,7.7-2.814,5.581,5.581,0,0,0,2.809-3.355,6.337,6.337,0,0,0-1.076-5.442,2.082,2.082,0,0,0-.834-.9M146.1,25.9a1.5,1.5,0,0,0,.02-.22,9.33,9.33,0,0,1,.074-2.138c.185-1.054.2-1.05,1.24-.772a1.853,1.853,0,0,0,1.8-.218,1.063,1.063,0,0,1,.668-.155,19.5,19.5,0,0,1,3.029.247,7.813,7.813,0,0,0,3.321.029,11.5,11.5,0,0,1,5.423-.219c.76.117,1.51.288,2.272.46a2.817,2.817,0,0,0-1.757-1.419c-1.468-.286-2.928-.617-4.4-.876a33.306,33.306,0,0,0-7.134-.718,10.065,10.065,0,0,0-3.711.657,1.818,1.818,0,0,0-1.223,1.666,12.818,12.818,0,0,0,.076,2.44,3.311,3.311,0,0,0,.3,1.235m-20.052-5.341c-.37-.084-.32.074-.244.287a3.934,3.934,0,0,0,1.6,1.981,17.035,17.035,0,0,0,3.607,1.547.35.35,0,0,0,.367-.076c.389-.311.782-.617,1.176-.922a.3.3,0,0,0,.13-.383,6.612,6.612,0,0,1-.39-2.047c-.017-.258-.106-.341-.37-.318a26.673,26.673,0,0,1-5.872-.069m7.074-6.4c-.176.144-.142.319-.146.478-.035,1.261-.075,2.52-.06,3.783a12.031,12.031,0,0,0,1.627,6.139,4.33,4.33,0,0,0,2.13,2.084,2.358,2.358,0,0,0,2.88-.724c-.09-.052-.155.011-.225.049a2.45,2.45,0,0,1-3-.441,4.942,4.942,0,0,1-1.129-2.351,14.085,14.085,0,0,0-.892-3.1,10.243,10.243,0,0,1-.985-3.878,9.14,9.14,0,0,0-.2-2.037" fill="#080707"/>
      <path id="Trazado_45" data-name="Trazado 45" d="M152.874,53.064a9.926,9.926,0,0,1-5.235,4.47,25.786,25.786,0,0,1-11.717,1.581,26.438,26.438,0,0,1-8.991-2.1,11.06,11.06,0,0,1-4.674-3.464,11.734,11.734,0,0,1-1.832-4.493c-.44-2-.582-4.047-.89-6.069-.068-.444-.119-.891-.216-1.328s.139-.451.44-.369a3.109,3.109,0,0,1,.826.456.744.744,0,0,0,1.232-.386,1.8,1.8,0,0,0-.318-2c-.412-.477-.86-.926-1.318-1.36-.289-.275-.336-.506-.018-.776.163-.138.231-.367.435-.469a3.929,3.929,0,0,1,1.5-.093,1.35,1.35,0,0,1,.782.256,11.264,11.264,0,0,1,1.775,1.5,6.884,6.884,0,0,0,2.105,1.465c1.624.624,3.168.051,4.7-.354.918-.243,1.759-.767,2.67-1.045a21.092,21.092,0,0,1,4.3-.959,6.247,6.247,0,0,1,4.464.854c1.565,1.136,3.351,1.974,4.628,3.507a14.9,14.9,0,0,1,1.865,2.738c.727,1.419,1.233,2.929,1.872,4.383a34.81,34.81,0,0,1,1.4,3.486c.058.185-.118.491.22.572m-12.691-9.678c.2-.027.443.115.672-.1a2.182,2.182,0,0,0-.574-3.617,2.8,2.8,0,0,0-3.065.481.7.7,0,0,0-.215.268,6.29,6.29,0,0,0-.424,2.187c.068.992.38,1.24,1.358,1.1.279-.039.555-.1.831-.161a6.615,6.615,0,0,1,1.418-.157" fill="#f8c2c7"/>
      <path id="Trazado_46" data-name="Trazado 46" d="M152.874,53.064c-.337-.081-.161-.388-.22-.572a34.831,34.831,0,0,0-1.4-3.486c-.639-1.455-1.146-2.965-1.872-4.383a14.89,14.89,0,0,0-1.865-2.738c-1.277-1.533-3.063-2.371-4.628-3.507a6.247,6.247,0,0,0-4.464-.854,21.106,21.106,0,0,0-4.3.959c-.912.279-1.753.8-2.67,1.045-1.532.406-3.076.978-4.7.354a6.884,6.884,0,0,1-2.106-1.465,11.258,11.258,0,0,0-1.774-1.5,1.35,1.35,0,0,0-.782-.256,3.929,3.929,0,0,0-1.5.093,16.455,16.455,0,0,1,1.893-2.244,111.206,111.206,0,0,1,10.713-9.636c.276-.229.367-.125.519.106a9.9,9.9,0,0,0,2.014,2.2c2.22,1.818,4.305,1.083,5.743-.894a9.168,9.168,0,0,0,1.275-3.693c.04-.192.065-.388.1-.628a3.025,3.025,0,0,1,1.669,2.187,33.711,33.711,0,0,0,1.094,4.452,5.865,5.865,0,0,0,3.265,3.738,21.38,21.38,0,0,0,11.916,1.536c.612-.091.606-.089.407.5a95.858,95.858,0,0,1-4.881,12.056c-1.08,2.173-2.081,4.389-3.338,6.471a1.821,1.821,0,0,1-.119.157" fill="#fefefe"/>
      <path id="Trazado_47" data-name="Trazado 47" d="M181.747,24.76c-.71-.046-1.385-.08-2.058-.135a34.919,34.919,0,0,1-8.614-2.063c-1.54-.535-3.073-1.087-4.613-1.622a.711.711,0,0,1-.492-.386c-.548-1.464-1.786-1.752-3.136-1.854-3.187-.241-6.373-.5-9.57-.574a32.228,32.228,0,0,0-7.135.708,3.555,3.555,0,0,1-3.89-1.259,2.179,2.179,0,0,0-.457-.526c-.527-.372-.415-.843-.261-1.333a4.443,4.443,0,0,1,3.741-3.107,7.715,7.715,0,0,1,3.928.4c.41.134.478.35.231.7a1.4,1.4,0,0,1-.591.446,1.72,1.72,0,0,0-.588.37.961.961,0,0,0-.227.884c.064.3.365.251.577.291a6.432,6.432,0,0,0,4.736-1.121,23.985,23.985,0,0,1,3.474-2.058,5.567,5.567,0,0,1,3.129-.376.511.511,0,0,1,.482.466c.119.587.27,1.167.385,1.754a5.942,5.942,0,0,0,2.788,3.8,28.554,28.554,0,0,0,7.035,3.281,34.788,34.788,0,0,0,10.215,1.929,4.647,4.647,0,0,1,2.7.751.806.806,0,0,1,.378.8,7.532,7.532,0,0,1-.657,2.8,6.185,6.185,0,0,1-4.27,3.08c-.248.07-.356-.063-.461-.262A12.7,12.7,0,0,1,177.941,29a4.066,4.066,0,0,0-.371-.815c-.426-.652-.528-.7-1.211-.4a1.663,1.663,0,0,1-1.934-.351c-.312-.294-.49-.2-.644.1-.191.368-.346.755-.517,1.134-.1.227-.19.462-.311.678-.321.574-.6.658-1.163.356-1.1-.588-2.272-1.036-3.33-1.706-.169-.107-.336-.215-.5-.332-.691-.5-.715-.518-.255-1.261.16-.258-.084-.391-.042-.6.135-.668.234-1.344.361-2.013.06-.318.28-.145.432-.1,1.41.393,2.828.751,4.262,1.046a33.06,33.06,0,0,0,7.283.759,2.891,2.891,0,0,0,1.217-.239.81.81,0,0,0,.528-.484" fill="#fefefe"/>
      <path id="Trazado_48" data-name="Trazado 48" d="M175.4,4.258a2.082,2.082,0,0,1,.834.9,6.338,6.338,0,0,1,1.076,5.442,5.581,5.581,0,0,1-2.809,3.355,24.3,24.3,0,0,1-7.695,2.814,3.7,3.7,0,0,1-3.967-2.19,2.083,2.083,0,0,1-.161-1.17c.185-1.148.986-1.109,1.715-.644a2.183,2.183,0,0,1,.573.618,3.879,3.879,0,0,0,.539.649c.216.2.462.417.8.208a.72.72,0,0,0,.32-.868c-.094-.335-.248-.653-.349-.986-.249-.823.08-1.22.928-1.14a1.857,1.857,0,0,1,1.106.523,2.5,2.5,0,0,0,1.127.707c.4.09.618-.072.638-.469a3.225,3.225,0,0,0-.056-.643c-.022-.147-.087-.287-.114-.434-.088-.489-.281-1.057.213-1.385a1.324,1.324,0,0,1,1.493.2,4.148,4.148,0,0,0,.9.536.85.85,0,0,0,.892-.151c.241-.223.074-.5.009-.746A4.64,4.64,0,0,0,172.8,8.3a1.14,1.14,0,0,1,.133-1.306.969.969,0,0,1,1.12-.346,1.058,1.058,0,0,0,1.241-.287,1.472,1.472,0,0,0,.249-1.672c-.064-.125-.187-.234-.136-.431" fill="#fdb54e"/>
      <path id="Trazado_49" data-name="Trazado 49" d="M146.1,25.9a3.311,3.311,0,0,1-.3-1.235,12.811,12.811,0,0,1-.076-2.44,1.818,1.818,0,0,1,1.223-1.666,10.066,10.066,0,0,1,3.711-.658,33.306,33.306,0,0,1,7.134.718c1.473.258,2.933.59,4.4.876a2.817,2.817,0,0,1,1.757,1.419c-.763-.172-1.512-.343-2.273-.46a11.494,11.494,0,0,0-5.423.219,7.815,7.815,0,0,1-3.321-.029,19.511,19.511,0,0,0-3.029-.247,1.062,1.062,0,0,0-.668.155,1.854,1.854,0,0,1-1.8.218c-1.045-.279-1.055-.283-1.24.771a9.331,9.331,0,0,0-.074,2.138,1.5,1.5,0,0,1-.02.22" fill="#7e7e83"/>
      <path id="Trazado_50" data-name="Trazado 50" d="M139.5,13.354l-.167-.085c-.015-.156-.112-.174-.239-.141a14.264,14.264,0,0,1-4.133-3.7,3.453,3.453,0,0,1-.492-3.7,10.3,10.3,0,0,1,2.1-2.922c.178.138.045.234.013.327-.148.441-.291.884-.459,1.317a1.175,1.175,0,0,0,.288,1.478c.249.212.3.4-.049.648-.323.228-.285.645-.228,1.018.027.18.161.164.289.2a7.931,7.931,0,0,0,1.384.167,4.529,4.529,0,0,1,.689.1.748.748,0,0,1,.649.989c-.071.425-.206.839-.269,1.265-.106.72.375,1.129,1.092.959a2.334,2.334,0,0,0,.8-.4.761.761,0,0,1,.97-.04.848.848,0,0,1,.255.994,2.725,2.725,0,0,1-.951,1.252c-.507.129-.972.5-1.542.269" fill="#fdb54e"/>
      <path id="Trazado_51" data-name="Trazado 51" d="M126.047,20.555a26.668,26.668,0,0,0,5.872.069c.264-.022.353.061.37.319a6.62,6.62,0,0,0,.39,2.047.3.3,0,0,1-.13.383c-.394.3-.787.61-1.176.922a.349.349,0,0,1-.367.076,17.035,17.035,0,0,1-3.607-1.547,3.936,3.936,0,0,1-1.6-1.981c-.076-.213-.126-.37.244-.287" fill="#fefefe"/>
      <path id="Trazado_52" data-name="Trazado 52" d="M133.121,14.153a9.14,9.14,0,0,1,.2,2.037,10.243,10.243,0,0,0,.985,3.878,14.085,14.085,0,0,1,.892,3.1,4.942,4.942,0,0,0,1.129,2.351,2.45,2.45,0,0,0,3,.441c.071-.038.136-.1.225-.048a2.359,2.359,0,0,1-2.88.723,4.33,4.33,0,0,1-2.13-2.084,12.031,12.031,0,0,1-1.627-6.139c-.015-1.263.025-2.522.06-3.783,0-.159-.03-.334.146-.478" fill="#7e7e83"/>
      <path id="Trazado_53" data-name="Trazado 53" d="M150.647,31.917a21.477,21.477,0,0,0,10.058.289,3.985,3.985,0,0,0,3.354-3.305l.145-.018c-.463,2.49-1.458,3.356-3.551,3.836a16.411,16.411,0,0,1-9.493-.449c-.172-.063-.336-.144-.5-.217l-.01-.136" fill="#f8c2c7"/>
      <path id="Trazado_54" data-name="Trazado 54" d="M134.7,12.653c1.562,1.321,3.21,2.531,4.838,3.767a3.556,3.556,0,0,1,1.546,3.366,14.633,14.633,0,0,1-.295,2.347c0-.5-.045-1.295.01-2.081a3.426,3.426,0,0,0-1.585-3.224,28.564,28.564,0,0,1-4.27-3.671c-.123-.133-.281-.238-.332-.427l.088-.077" fill="#f8c2c7"/>
      <path id="Trazado_55" data-name="Trazado 55" d="M164.2,28.883l-.145.018a8.655,8.655,0,0,1,.408-1.94,3.706,3.706,0,0,1-.263,1.923" fill="#7e7e83"/>
      <path id="Trazado_56" data-name="Trazado 56" d="M139.5,13.354c.57.233,1.035-.14,1.542-.269-.136.115-.278.223-.407.345a.689.689,0,0,1-1.135-.076" fill="#7e7e83"/>
      <path id="Trazado_57" data-name="Trazado 57" d="M134.487,12.595c-.294-.117-.4-.4-.563-.641a1.292,1.292,0,0,1,.739.627l-.177.014" fill="#7e7e83"/>
      <path id="Trazado_58" data-name="Trazado 58" d="M150.647,31.917l.01.136a1.4,1.4,0,0,1-.81-.391c.278.052.58.01.8.255" fill="#7e7e83"/>
      <path id="Trazado_59" data-name="Trazado 59" d="M139.1,13.128c.127-.033.224-.014.239.141a.278.278,0,0,1-.239-.141" fill="#7e7e83"/>
      <path id="Trazado_60" data-name="Trazado 60" d="M134.487,12.595l.177-.014a.06.06,0,0,1,.033.073l-.088.077-.121-.136" fill="#f8c2c7"/>
      <path id="Trazado_61" data-name="Trazado 61" d="M140.183,43.386a6.615,6.615,0,0,0-1.418.157c-.276.059-.552.122-.831.161-.978.137-1.29-.111-1.358-1.1A6.29,6.29,0,0,1,137,40.414a.7.7,0,0,1,.215-.268,2.8,2.8,0,0,1,3.065-.481,2.182,2.182,0,0,1,.574,3.617c-.229.219-.47.077-.672.1" fill="#080707"/>
      <path id="Trazado_62" data-name="Trazado 62" d="M94.742,30.3q0,4.07,0,8.139c0,.957-.228,1.186-1.167,1.185-.65,0-1.3-.015-1.948,0a1.08,1.08,0,0,1-1.132-.719c-.11-.259-.271-.5-.387-.752-.134-.3-.268-.294-.521-.1a7.406,7.406,0,0,1-2.7,1.575c-2.9.694-5.561.394-7.709-1.922A7.74,7.74,0,0,1,77.272,33.4a10.964,10.964,0,0,1,.68-6.118A6.515,6.515,0,0,1,83.471,23.2a7.927,7.927,0,0,1,4.336.777c.572.263.6.245.607-.387q.008-2.072.009-4.144a2.4,2.4,0,0,1,.082-.636.554.554,0,0,1,.632-.476c1.549.019,3.1.008,4.646.008.688,0,.837.156.86.837.126,3.708.077,7.417.1,11.125M83.223,32.1a4.761,4.761,0,0,0,.3,1.677A2.309,2.309,0,0,0,86.5,35.231a7.786,7.786,0,0,0,1.491-.8.687.687,0,0,0,.37-.688c-.014-1.43-.051-2.864.026-4.29.034-.631-.042-1.064-.677-1.278-.093-.032-.174-.1-.266-.137a2.816,2.816,0,0,0-3.733,1.3,6.46,6.46,0,0,0-.484,2.757" fill="#fdb54e"/>
      <path id="Trazado_63" data-name="Trazado 63" d="M35.333,32.206c0,1.126.013,2.173-.007,3.22a.569.569,0,0,0,.472.653.868.868,0,0,1,.761.687c.076.394-.179.638-.465.869-.814.661-1.622,1.329-2.415,2.014a.992.992,0,0,1-.818.251,3.675,3.675,0,0,1-2.287-1.112.49.49,0,0,0-.677-.107,10.763,10.763,0,0,1-7.164,1.042A4.4,4.4,0,0,1,19.1,36.24a4.573,4.573,0,0,1,1.855-5.01,9.276,9.276,0,0,1,6.373-1.656c.548.036,1.1.052,1.644.089.218.015.241-.082.227-.268a1.413,1.413,0,0,0-1.043-1.257,5.571,5.571,0,0,0-3.462.235c-.8.269-1.569.637-2.348.97a.776.776,0,0,1-1.172-.437c-.322-.709-.643-1.419-.93-2.142a.85.85,0,0,1,.406-1.258,12.859,12.859,0,0,1,4.2-1.681,11.157,11.157,0,0,1,3.149-.29,9.982,9.982,0,0,1,4.979,1.237,5.166,5.166,0,0,1,2.2,3.632,29.439,29.439,0,0,1,.152,3.8m-7.049,1.469c-.066,0-.132.011-.2.014a5.533,5.533,0,0,0-2.591.576.765.765,0,0,0-.439.82c.061.347.348.459.653.517a5.382,5.382,0,0,0,3.41-.589.291.291,0,0,0,.164-.323c-.042-1.311.25-1.029-1-1.015" fill="#fefefe"/>
      <path id="Trazado_64" data-name="Trazado 64" d="M69.049,32.232c0,1.186.015,2.168-.007,3.149a.616.616,0,0,0,.525.716.8.8,0,0,1,.691.63.846.846,0,0,1-.386.859c-.873.718-1.747,1.436-2.613,2.163a.7.7,0,0,1-.546.163,3.727,3.727,0,0,1-2.435-1.128.449.449,0,0,0-.621-.118,11.515,11.515,0,0,1-5.781,1.263A5.65,5.65,0,0,1,53.9,38.337a4.806,4.806,0,0,1,.434-6.832,8.889,8.889,0,0,1,6.224-1.962c.7.018,1.4.064,2.092.113.266.019.309-.086.271-.319a1.732,1.732,0,0,0-1.877-1.37,7.257,7.257,0,0,0-3.061.549c-.642.273-1.278.562-1.917.842a.8.8,0,0,1-1.2-.471q-.469-1.044-.913-2.1a.863.863,0,0,1,.4-1.264,12.394,12.394,0,0,1,4.525-1.767,13.208,13.208,0,0,1,6.457.365,4.984,4.984,0,0,1,3.546,4.184,24.6,24.6,0,0,1,.173,3.926m-7.066,1.444c-.215.012-.432.013-.646.037a5.175,5.175,0,0,0-2.1.531.794.794,0,0,0-.476.853c.074.361.392.455.715.513a5.406,5.406,0,0,0,3.365-.6.315.315,0,0,0,.194-.258c.173-.994.049-1.14-.951-1.085l-.1.006" fill="#fefefe"/>
      <path id="Trazado_65" data-name="Trazado 65" d="M95.923,31.81a7.973,7.973,0,0,1,1.949-5.61,7.756,7.756,0,0,1,4.372-2.414,10.621,10.621,0,0,1,7.134.823,7.193,7.193,0,0,1,3.943,5.916,9.575,9.575,0,0,1-.262,3.855,7.279,7.279,0,0,1-5.707,5.28,10.876,10.876,0,0,1-6.529-.353A7.272,7.272,0,0,1,96.046,33.4a9.056,9.056,0,0,1-.123-1.59m11.672-.094c-.03-.3-.04-.6-.094-.892a2.548,2.548,0,0,0-1.809-2.182,2.843,2.843,0,0,0-3.058.617,3.71,3.71,0,0,0-.745,3.6,2.435,2.435,0,0,0,2.061,2.044,2.85,2.85,0,0,0,3.074-1.044,4.024,4.024,0,0,0,.572-2.141" fill="#fdb54e"/>
      <path id="Trazado_66" data-name="Trazado 66" d="M8.951,31.11c.256-.622.517-1.242.766-1.866q.872-2.194,1.732-4.392c.307-.785.514-.932,1.365-.931,1.232,0,2.464,0,3.7,0,.839,0,1.142.5.81,1.258Q14.281,32.136,11.265,39.1a1.236,1.236,0,0,1-1.337.858c-.864-.037-1.731-.026-2.6-.007a1.044,1.044,0,0,1-1.083-.7Q4.061,34.2,1.861,29.151C1.3,27.862.745,26.57.173,25.285c-.4-.894-.108-1.363.87-1.363q2.172,0,4.345,0a.971.971,0,0,1,1.047.7c.778,2.161,1.593,4.309,2.4,6.461l.122.024" fill="#fefefe"/>
      <path id="Trazado_67" data-name="Trazado 67" d="M37.527,32.1a8.647,8.647,0,0,1,1.544-5.427,7.488,7.488,0,0,1,5-2.974,10.573,10.573,0,0,1,6,.707,1.2,1.2,0,0,1,.816,1.155c.063,1.024.187,2.044.311,3.063a.869.869,0,0,1-.349.96c-.358.225-.656.04-.972-.135a8,8,0,0,0-3.608-1.176,2.463,2.463,0,0,0-2.391,1.317,4.7,4.7,0,0,0-.452,3.054c.2,1.39,1.143,2.075,2.73,2.173a8.164,8.164,0,0,0,3.7-.87.961.961,0,0,1,.987,0,.88.88,0,0,1,.326.932c-.147,1.07-.3,2.14-.433,3.212a1.12,1.12,0,0,1-.732,1.028,11.437,11.437,0,0,1-7,.5,7.2,7.2,0,0,1-5.34-6.006c-.084-.6-.111-1.19-.125-1.514" fill="#fefefe"/>
      <path id="Trazado_68" data-name="Trazado 68" d="M74.608,46.525a4.3,4.3,0,0,1,.546-1.948,3.807,3.807,0,0,1,3.732-1.933c2.739.125,4.3,2,4.086,4.746a4.273,4.273,0,0,1-1.306,3.074,4.7,4.7,0,0,1-4.92.575c-1.476-.722-2.273-2.279-2.138-4.515m6.422.531a6.418,6.418,0,0,0,0-.7,2.244,2.244,0,0,0-4.444-.242,4.222,4.222,0,0,0,.035,1.977,2.221,2.221,0,0,0,4.342-.047,3.245,3.245,0,0,0,.071-.99" fill="#fefefe"/>
      <path id="Trazado_69" data-name="Trazado 69" d="M4.206,48.849c.65-1.959,1.275-3.794,1.858-5.643.125-.4.3-.54.7-.483.453.066,1.082-.215,1.317.123.186.269-.214.809-.362,1.226-.815,2.3-1.638,4.591-2.446,6.89-.107.305-.236.473-.6.429-.49-.06-1.1.19-1.449-.1-.322-.264-.381-.854-.543-1.305C1.866,47.728,1.067,45.461.236,43.2.075,42.767.193,42.7.6,42.721c.481.03,1.084-.155,1.413.072s.384.843.54,1.3C3.037,45.5,3.514,46.914,4,48.326c.047.137.107.268.21.523" fill="#fefefe"/>
      <path id="Trazado_70" data-name="Trazado 70" d="M26.661,50.621a2.733,2.733,0,0,1-2.5.789,1.775,1.775,0,0,1-1.5-1.564,1.716,1.716,0,0,1,1.207-1.937c.706-.251,1.458-.316,2.175-.521.154-.044.414,0,.422-.257a.632.632,0,0,0-.308-.635,1.3,1.3,0,0,0-1.678.458.3.3,0,0,1-.385.183,7.327,7.327,0,0,0-.988-.127c-.314-.016-.293-.17-.227-.393a2.469,2.469,0,0,1,2.735-1.686,5.027,5.027,0,0,1,1.282.161,1.559,1.559,0,0,1,1.27,1.576c.032.879.005,1.761.008,2.642a3.952,3.952,0,0,0,.287,1.753c.116.241.043.333-.215.323a5.084,5.084,0,0,0-.648,0c-.513.046-.969.026-.93-.767m-1.435-.6c.811.008,1.279-.4,1.244-1.085-.008-.153-.01-.255-.215-.209-.485.108-.977.187-1.46.3a.473.473,0,0,0-.4.4c-.021.244.147.382.347.5a.988.988,0,0,0,.482.093" fill="#fefefe"/>
      <path id="Trazado_71" data-name="Trazado 71" d="M12.38,50.607a2.728,2.728,0,0,1-2.531.8,1.782,1.782,0,0,1-1.485-1.53A1.728,1.728,0,0,1,9.54,47.918c.721-.26,1.49-.326,2.223-.534.149-.042.412,0,.405-.271a.638.638,0,0,0-.327-.624,1.3,1.3,0,0,0-1.67.483c-.09.156-.164.211-.345.171-.259-.057-.525-.077-.788-.115-.6-.085-.6-.085-.356-.658a2.454,2.454,0,0,1,2.653-1.438,4.994,4.994,0,0,1,1.33.177,1.553,1.553,0,0,1,1.2,1.529c.034.73.017,1.462.013,2.193a5.05,5.05,0,0,0,.289,2.25c.1.214.048.309-.19.3a5.188,5.188,0,0,0-.8.006c-.527.074-.839-.083-.8-.784m-1.447-.589c.811.008,1.279-.4,1.245-1.084-.008-.151-.007-.257-.214-.211-.485.108-.977.187-1.46.3a.473.473,0,0,0-.4.4c-.021.244.146.383.346.5a.986.986,0,0,0,.482.093" fill="#fefefe"/>
      <path id="Trazado_72" data-name="Trazado 72" d="M111.4,48.689c-.582,0-1.165.011-1.747,0-.284-.007-.336.08-.262.348a1.256,1.256,0,0,0,.953.972c.585.095.831-.043,1.181-.658.039-.069.1-.188.139-.185a15.888,15.888,0,0,1,1.578.19c.172.033.031.227-.01.338a2.674,2.674,0,0,1-2.813,1.778c-2.12-.162-3.217-1.7-2.833-3.965a2.886,2.886,0,0,1,3.945-2.4A2.946,2.946,0,0,1,113.416,48c.029.688.029.688-.668.688H111.4m-.909-1.17a7.016,7.016,0,0,1,.794.006c.417.048.4-.171.288-.437a1.044,1.044,0,0,0-.988-.7,1.08,1.08,0,0,0-1.12.653c-.153.332-.106.532.33.482a6.221,6.221,0,0,1,.7,0" fill="#fefefe"/>
      <path id="Trazado_73" data-name="Trazado 73" d="M60.148,48.689c-.566,0-1.132,0-1.7,0-.205,0-.3.03-.248.281A1.289,1.289,0,0,0,59.157,50c.584.1.868-.048,1.192-.641a.764.764,0,0,1,.095-.171,6.817,6.817,0,0,1,1.66.163c.094.115,0,.217-.033.321a2.688,2.688,0,0,1-2.8,1.8c-2.138-.152-3.233-1.694-2.842-4a2.876,2.876,0,0,1,3.92-2.368,2.925,2.925,0,0,1,1.9,2.88c.033.705.033.705-.65.705H60.148M59.3,47.52c.3,0,.6-.017.894,0s.3-.117.24-.326a1.035,1.035,0,0,0-.907-.8,1.086,1.086,0,0,0-1.2.587c-.22.446-.167.531.328.534.215,0,.431,0,.646,0" fill="#fefefe"/>
      <path id="Trazado_74" data-name="Trazado 74" d="M66.26,44.925a2.473,2.473,0,0,1,2.7,1.676c.088.264.1.4-.239.41a6.215,6.215,0,0,0-.692.089c-.349.046-.658.133-.864-.345-.179-.416-1.416-.509-1.786-.212-.221.177-.15.431.191.541.41.132.836.211,1.253.323a11.617,11.617,0,0,1,1.242.358,1.718,1.718,0,0,1,.586,2.968c-1.386,1.359-4.389.822-5.131-.918-.24-.562-.24-.56.34-.626.182-.02.363-.048.543-.077.407-.065.729-.106.943.426.22.547,1.516.669,1.964.266.267-.24.19-.564-.188-.669-.575-.161-1.162-.281-1.741-.428a4.8,4.8,0,0,1-.661-.216,1.635,1.635,0,0,1-1.128-1.549,1.746,1.746,0,0,1,1.06-1.714,4.306,4.306,0,0,1,1.606-.3" fill="#fefefe"/>
      <path id="Trazado_75" data-name="Trazado 75" d="M47.355,48.187a3.174,3.174,0,0,1-3.251,3.3,3.111,3.111,0,0,1-3.246-3.338,3.248,3.248,0,0,1,6.5.041m-1.8.049c.006-.984-.436-1.7-1.137-1.829a1.455,1.455,0,0,0-1.733,1.416c-.166,1.127.373,2.092,1.222,2.19.033,0,.066,0,.1,0,.943.046,1.542-.643,1.549-1.782" fill="#fefefe"/>
      <path id="Trazado_76" data-name="Trazado 76" d="M71.233,36.945c0-.632-.006-1.264,0-1.9.007-.563.235-.786.791-.787q1.548,0,3.1,0c.543,0,.767.209.772.75q.021,1.921.009,3.842c0,.525-.24.759-.77.764-1.048.01-2.1.008-3.146,0-.51,0-.745-.25-.752-.78-.008-.632,0-1.264,0-1.9" fill="#fefefe"/>
      <path id="Trazado_77" data-name="Trazado 77" d="M50.714,45.764a2.651,2.651,0,0,1,2.714-.708,1.68,1.68,0,0,1,1.313,1.682c.039,1.447.017,2.9.031,4.343,0,.246-.094.3-.323.309-1.414.072-1.41.078-1.416-1.313,0-.882,0-1.764-.041-2.644-.037-.737-.311-1.024-.878-1.043a1.149,1.149,0,0,0-1.255,1.027,26.877,26.877,0,0,0-.089,3.29c0,.677,0,.677-.7.677-1.038,0-1.038,0-1.038-1.033,0-1.631.01-3.263-.008-4.894,0-.353.1-.484.447-.437a3.348,3.348,0,0,0,.449,0c.713,0,.713,0,.789.74" fill="#fefefe"/>
      <path id="Trazado_78" data-name="Trazado 78" d="M86.366,45.777a2.731,2.731,0,0,1,2.474-.784,1.725,1.725,0,0,1,1.572,1.669c.055,1.479.024,2.962.037,4.443,0,.22-.086.3-.3.28a.321.321,0,0,0-.05,0c-1.39.06-1.385.06-1.391-1.331,0-.9,0-1.8-.044-2.694-.032-.635-.309-.925-.8-.968a1.138,1.138,0,0,0-1.29.855,8.82,8.82,0,0,0-.126,1.487c-.019.749-.023,1.5,0,2.247.012.344-.111.44-.428.407-.424-.045-.992.184-1.238-.1-.21-.245-.073-.793-.074-1.207,0-1.548.008-3.1-.01-4.644,0-.335.1-.452.422-.413a4.743,4.743,0,0,0,.549,0c.659,0,.659,0,.687.753" fill="#fefefe"/>
      <path id="Trazado_79" data-name="Trazado 79" d="M101.853,45.779a2.739,2.739,0,0,1,2.474-.786,1.739,1.739,0,0,1,1.582,1.715c.048,1.463.021,2.929.032,4.393,0,.215-.077.31-.292.284a.3.3,0,0,0-.05,0c-1.394.064-1.389.064-1.4-1.327,0-.9,0-1.8-.044-2.694-.032-.638-.306-.928-.794-.972a1.135,1.135,0,0,0-1.292.851,9.23,9.23,0,0,0-.128,1.537c-.02.749-.017,1.5,0,2.247.007.288-.091.359-.37.365-1.369.03-1.368.039-1.368-1.31,0-1.548.009-3.1-.008-4.644,0-.328.084-.459.417-.418a4.529,4.529,0,0,0,.549,0c.665,0,.665,0,.687.755" fill="#fefefe"/>
      <path id="Trazado_80" data-name="Trazado 80" d="M17.419,48.039a3.655,3.655,0,0,0,.136,1.152,1.114,1.114,0,0,0,1.16.827.953.953,0,0,0,1.023-.83c.076-.295.168-.376.465-.312A6.86,6.86,0,0,0,21.242,49c.278.017.316.112.248.377A2.732,2.732,0,0,1,18.5,51.472a2.964,2.964,0,0,1-2.911-3.384,3.013,3.013,0,0,1,3.938-3.058,2.509,2.509,0,0,1,1.888,1.864c.058.183.057.283-.161.306-.43.045-.86.089-1.288.153-.173.026-.224-.042-.286-.185-.3-.693-.579-.858-1.249-.766a1.146,1.146,0,0,0-.958,1.064c-.037.229-.045.462-.055.575" fill="#fefefe"/>
      <path id="Trazado_81" data-name="Trazado 81" d="M31.714,48.165a3.207,3.207,0,0,0,.134,1.032,1.115,1.115,0,0,0,1.164.821.951.951,0,0,0,1.018-.836c.077-.3.182-.365.47-.3A7.055,7.055,0,0,0,35.54,49c.29.016.305.129.24.383a2.733,2.733,0,0,1-2.894,2.1,2.844,2.844,0,0,1-2.914-2.359,4.684,4.684,0,0,1,.035-1.98,2.837,2.837,0,0,1,3.077-2.2,2.578,2.578,0,0,1,2.609,1.913c.072.234.065.338-.2.355-.248.015-.5.054-.742.09-.411.06-.768.13-.921-.455-.108-.413-.554-.468-.961-.453a1.061,1.061,0,0,0-.98.653,2.486,2.486,0,0,0-.173,1.124" fill="#fefefe"/>
      <path id="Trazado_82" data-name="Trazado 82" d="M92.529,47.056c0-1.314.009-2.628-.007-3.942,0-.306.085-.391.392-.4,1.365-.02,1.365-.03,1.365,1.318,0,2.3-.008,4.591.008,6.886,0,.371-.1.477-.474.473-1.285-.016-1.285,0-1.285-1.295Z" fill="#fefefe"/>
      <path id="Trazado_83" data-name="Trazado 83" d="M37.361,48.193c0-.914.012-1.829-.007-2.743-.006-.311.057-.432.4-.435,1.353-.009,1.353-.023,1.353,1.33,0,1.53-.008,3.059.006,4.589,0,.33-.062.5-.434.457a4.39,4.39,0,0,0-.9,0c-.368.038-.44-.121-.432-.454.02-.914.007-1.829.007-2.743" fill="#fefefe"/>
      <path id="Trazado_84" data-name="Trazado 84" d="M98.177,48.22c0,.914-.009,1.829.005,2.743,0,.308-.059.467-.413.427-.425-.049-.978.174-1.252-.087s-.084-.818-.087-1.244c-.011-1.53,0-3.059-.012-4.589,0-.336.071-.456.434-.456,1.324,0,1.324-.011,1.324,1.31v1.9" fill="#fefefe"/>
      <path id="Trazado_85" data-name="Trazado 85" d="M38.22,44.294c-.86,0-.86,0-.86-.761,0-.808,0-.808.863-.808.891,0,.891,0,.891.836,0,.733,0,.733-.893.733" fill="#fefefe"/>
      <path id="Trazado_86" data-name="Trazado 86" d="M97.317,42.725c.862,0,.862,0,.862.865,0,.7,0,.7-.773.7-.981,0-.981,0-.981-.889,0-.68,0-.68.892-.68" fill="#fefefe"/>
      <path id="Trazado_87" data-name="Trazado 87" d="M94.047,18.108H88.992c0-.019,0-.038,0-.057h5.069l-.014.057" fill="#fdb54e"/>
    </g>
  </svg>
  