<svg id="Grupo_2" data-name="Grupo 2" xmlns="http://www.w3.org/2000/svg" xmlns:xlink="http://www.w3.org/1999/xlink" width="193" height="65" viewBox="0 0 193 65">
    <defs>
      <clipPath id="clip-path">
        <rect id="Rectángulo_1" data-name="Rectángulo 1" width="193" height="65" fill="none"/>
      </clipPath>
    </defs>
    <g id="Grupo_1" data-name="Grupo 1" clip-path="url(#clip-path)">
      <path id="Trazado_1" data-name="Trazado 1" d="M145.009,65a35.184,35.184,0,0,1-12.7-2.138,12.689,12.689,0,0,1-4.669-2.825,17.25,17.25,0,0,1-3.864-6.523,27.519,27.519,0,0,1-1.093-5.7c-.34-2.9-.41-5.811-.517-8.723a3.832,3.832,0,0,1,1.517-3.342c2.547-1.993,5.123-3.948,7.538-6.1.813-.726,1.584-1.5,2.39-2.232.266-.242.2-.357-.058-.542-1.06-.747-2.191-1.387-3.2-2.211a7.215,7.215,0,0,1-2.416-3.49.6.6,0,0,1,.188-.73,2.767,2.767,0,0,1,1.715-.633,20.863,20.863,0,0,1,2.94.227,28.8,28.8,0,0,0,4.036-.083c.316-.017.4-.147.385-.459a65.76,65.76,0,0,1,.237-7.426,2.133,2.133,0,0,1,.337-1.135.492.492,0,0,0,.029-.595,7.013,7.013,0,0,1,.551-7.208,7.239,7.239,0,0,1,3.4-2.469c.464-.185.949-.317,1.42-.487.28-.1.332,0,.3.263a24.449,24.449,0,0,0-.016,4.318,4.93,4.93,0,0,0,1.853,3.693,16.784,16.784,0,0,0,2.085,1.45,22.962,22.962,0,0,1,2.542,1.7.359.359,0,0,0,.419.1,4.474,4.474,0,0,1,3.9.265c.722.331,1.439.674,2.162,1a4.077,4.077,0,0,0,4-.3,8.4,8.4,0,0,1,2.787-1.216,10.027,10.027,0,0,1,4.007.212,2.157,2.157,0,0,0,1.349-.14c1.521-.613,3.075-1.144,4.6-1.749a11.986,11.986,0,0,0,5.326-3.647,8.659,8.659,0,0,0,1.858-4.385c.057-.5.18-.986.262-1.48.035-.208.091-.353.319-.182a19.011,19.011,0,0,1,4.658,4.32,9.066,9.066,0,0,1,1.27,6.338,6.76,6.76,0,0,1-2.5,4.235,14.447,14.447,0,0,1-5.809,3.4,4.094,4.094,0,0,0-1.667,1.016c-.3.288-.29.49.039.742a6.337,6.337,0,0,0,2.6,1.105,63.387,63.387,0,0,0,6.684.782,17.684,17.684,0,0,1,4.162.788,3.464,3.464,0,0,1,2.614,4.1,6.8,6.8,0,0,1-2.5,4.477,13.823,13.823,0,0,1-5.665,3.021.642.642,0,0,1-.658-.155,4.545,4.545,0,0,1-1.134-1.718,1.114,1.114,0,0,0-1.484-.654.7.7,0,0,0-.544.714,1.186,1.186,0,0,1-1.6,1.176,16.26,16.26,0,0,1-5.534-2.638c-.383-.259-.761-.784-1.15-.708-.405.079-.461.743-.669,1.148a6.5,6.5,0,0,1-2.256,2.914.476.476,0,0,0-.181.3c-1.093,3.644-2.549,7.158-3.837,10.731-.964,2.673-1.659,5.439-2.8,8.052a19.848,19.848,0,0,1-3.618,6.148,15.559,15.559,0,0,1-9.632,5.024,41.958,41.958,0,0,1-4.7.258M139.65,13.132a1.342,1.342,0,0,0-.767-.654c.17.248.278.547.584.669l.126.142c.053.2.217.307.344.446a29.689,29.689,0,0,0,4.428,3.832,3.584,3.584,0,0,1,1.644,3.365c-.057.82-.01,1.648-.01,2.172a15.373,15.373,0,0,0,.306-2.45,3.721,3.721,0,0,0-1.6-3.514c-1.689-1.29-3.4-2.553-5.017-3.932a.062.062,0,0,0-.034-.077m30.634,17.017a3.892,3.892,0,0,0,.273-2.007,9.089,9.089,0,0,0-.423,2.026,4.145,4.145,0,0,1-3.478,3.45,22.133,22.133,0,0,1-10.431-.3c-.229-.256-.542-.212-.83-.266a1.448,1.448,0,0,0,.84.408c.174.076.345.161.523.226a16.912,16.912,0,0,0,9.844.469c2.17-.5,3.2-1.405,3.682-4M144.247,13.7a.288.288,0,0,0,.247.147l.174.089a.712.712,0,0,0,1.176.079c.134-.127.281-.241.423-.36a2.841,2.841,0,0,0,.986-1.307.888.888,0,0,0-.265-1.038.785.785,0,0,0-1.006.042,2.416,2.416,0,0,1-.825.421c-.744.178-1.242-.249-1.132-1,.065-.444.2-.877.279-1.321a.781.781,0,0,0-.673-1.033,4.668,4.668,0,0,0-.714-.107,8.172,8.172,0,0,1-1.436-.175c-.133-.037-.272-.02-.3-.207-.059-.389-.1-.824.236-1.062.361-.256.309-.455.05-.676a1.232,1.232,0,0,1-.3-1.543c.174-.452.323-.915.476-1.375.032-.1.171-.2-.014-.341a10.75,10.75,0,0,0-2.18,3.051,3.624,3.624,0,0,0,.51,3.857,14.825,14.825,0,0,0,4.286,3.859M158.535,55.39a1.9,1.9,0,0,0,.124-.164c1.3-2.173,2.342-4.486,3.462-6.754a100.471,100.471,0,0,0,5.062-12.584c.206-.615.213-.617-.422-.522a22.039,22.039,0,0,1-12.357-1.6,6.11,6.11,0,0,1-3.386-3.9,35.362,35.362,0,0,1-1.134-4.647,3.156,3.156,0,0,0-1.731-2.283c-.041.25-.066.454-.108.655a9.61,9.61,0,0,1-1.323,3.855c-1.491,2.063-3.653,2.831-5.955.933a10.316,10.316,0,0,1-2.089-2.295c-.158-.24-.252-.35-.538-.11a115.588,115.588,0,0,0-11.11,10.058,17.155,17.155,0,0,0-1.962,2.342c-.212.106-.282.345-.452.49-.329.282-.281.523.019.81.474.454.939.922,1.367,1.42a1.888,1.888,0,0,1,.329,2.09.77.77,0,0,1-1.277.4,3.221,3.221,0,0,0-.856-.476c-.312-.085-.559-.08-.456.386s.154.923.224,1.386c.319,2.11.467,4.245.923,6.335a12.292,12.292,0,0,0,1.9,4.69,11.475,11.475,0,0,0,4.847,3.616,27.27,27.27,0,0,0,9.324,2.189,26.58,26.58,0,0,0,12.15-1.65,10.311,10.311,0,0,0,5.429-4.666m29.941-29.545a.842.842,0,0,1-.547.505,2.983,2.983,0,0,1-1.262.25,34.076,34.076,0,0,1-7.553-.792c-1.487-.308-2.958-.682-4.42-1.092-.157-.044-.385-.225-.448.107-.132.7-.234,1.4-.374,2.1-.044.218.209.357.043.626-.477.775-.452.792.264,1.316.167.122.341.236.516.347,1.1.7,2.312,1.167,3.453,1.781.587.315.873.228,1.206-.372.126-.226.217-.471.323-.708.177-.4.338-.8.536-1.183.16-.309.345-.411.668-.1a1.716,1.716,0,0,0,2.006.367c.709-.311.814-.258,1.256.423a4.255,4.255,0,0,1,.385.85,13.287,13.287,0,0,0,.609,1.6c.109.207.221.346.478.273a6.417,6.417,0,0,0,4.428-3.215,7.905,7.905,0,0,0,.681-2.92.843.843,0,0,0-.391-.832,4.8,4.8,0,0,0-2.8-.783,35.875,35.875,0,0,1-10.593-2.014,29.532,29.532,0,0,1-7.3-3.425,6.2,6.2,0,0,1-2.891-3.963c-.119-.613-.275-1.219-.4-1.831a.531.531,0,0,0-.5-.486,5.739,5.739,0,0,0-3.245.392,24.837,24.837,0,0,0-3.6,2.148,6.637,6.637,0,0,1-4.912,1.17c-.22-.041-.532.013-.6-.3a1.008,1.008,0,0,1,.236-.923,1.783,1.783,0,0,1,.61-.386,1.447,1.447,0,0,0,.613-.465c.257-.365.186-.591-.239-.731a7.951,7.951,0,0,0-4.073-.413,4.615,4.615,0,0,0-3.879,3.243c-.16.512-.276,1,.27,1.392a2.273,2.273,0,0,1,.474.549,3.673,3.673,0,0,0,4.034,1.314,33.209,33.209,0,0,1,7.4-.739c3.316.073,6.62.348,9.925.6,1.4.106,2.684.407,3.252,1.935a.738.738,0,0,0,.511.4c1.6.558,3.187,1.135,4.784,1.693a36.01,36.01,0,0,0,8.933,2.153c.7.057,1.4.093,2.134.141m-6.58-21.4c-.052.205.074.32.141.45a1.545,1.545,0,0,1-.258,1.745,1.092,1.092,0,0,1-1.287.3,1,1,0,0,0-1.161.361,1.2,1.2,0,0,0-.138,1.363,4.854,4.854,0,0,1,.633,1.129c.068.258.241.547-.009.779a.877.877,0,0,1-.925.157,4.284,4.284,0,0,1-.929-.56,1.367,1.367,0,0,0-1.548-.209c-.512.342-.312.935-.22,1.446.027.153.095.3.118.453a3.4,3.4,0,0,1,.058.671c-.021.415-.246.583-.662.49a2.591,2.591,0,0,1-1.169-.738,1.922,1.922,0,0,0-1.147-.546c-.879-.084-1.221.33-.962,1.19.1.348.265.68.362,1.029a.754.754,0,0,1-.332.906c-.345.219-.6-.01-.825-.217a4.045,4.045,0,0,1-.559-.678,2.271,2.271,0,0,0-.595-.645c-.756-.486-1.587-.527-1.778.672a2.185,2.185,0,0,0,.167,1.222,3.831,3.831,0,0,0,4.114,2.286,25.093,25.093,0,0,0,7.98-2.937,5.816,5.816,0,0,0,2.913-3.5,6.65,6.65,0,0,0-1.116-5.68,2.168,2.168,0,0,0-.865-.937M151.508,27.032a1.572,1.572,0,0,0,.02-.23,9.8,9.8,0,0,1,.077-2.231c.192-1.1.2-1.1,1.286-.805a1.911,1.911,0,0,0,1.869-.228,1.1,1.1,0,0,1,.693-.162,20.093,20.093,0,0,1,3.141.258,8.051,8.051,0,0,0,3.444.03,11.845,11.845,0,0,1,5.624-.229c.789.122,1.566.3,2.357.48a2.925,2.925,0,0,0-1.822-1.481c-1.523-.3-3.037-.644-4.564-.914a34.322,34.322,0,0,0-7.4-.749,10.377,10.377,0,0,0-3.849.686,1.9,1.9,0,0,0-1.268,1.739,13.468,13.468,0,0,0,.079,2.547,3.475,3.475,0,0,0,.312,1.289m-20.794-5.576c-.384-.087-.332.077-.253.3a4.1,4.1,0,0,0,1.656,2.068,17.605,17.605,0,0,0,3.741,1.615.361.361,0,0,0,.38-.08c.4-.325.811-.644,1.219-.962a.309.309,0,0,0,.135-.4,6.942,6.942,0,0,1-.4-2.137c-.017-.269-.11-.356-.384-.332a27.481,27.481,0,0,1-6.09-.072m7.336-6.683c-.183.15-.147.333-.152.5-.036,1.316-.078,2.631-.062,3.948a12.623,12.623,0,0,0,1.687,6.409,4.5,4.5,0,0,0,2.208,2.175,2.436,2.436,0,0,0,2.986-.755c-.093-.055-.16.011-.234.051a2.529,2.529,0,0,1-3.113-.46,5.173,5.173,0,0,1-1.171-2.454,14.777,14.777,0,0,0-.925-3.24,10.748,10.748,0,0,1-1.022-4.048,9.6,9.6,0,0,0-.2-2.126" fill="#080707"/>
      <path id="Trazado_2" data-name="Trazado 2" d="M158.535,55.39a10.312,10.312,0,0,1-5.429,4.666,26.58,26.58,0,0,1-12.15,1.65,27.268,27.268,0,0,1-9.324-2.188,11.475,11.475,0,0,1-4.847-3.616,12.293,12.293,0,0,1-1.9-4.69c-.456-2.09-.6-4.225-.922-6.335-.07-.463-.123-.93-.224-1.386s.144-.47.456-.386a3.218,3.218,0,0,1,.856.476.77.77,0,0,0,1.277-.4,1.888,1.888,0,0,0-.329-2.09c-.427-.5-.892-.966-1.367-1.42-.3-.287-.348-.528-.019-.81.169-.145.24-.383.452-.49a4.048,4.048,0,0,1,1.553-.1,1.394,1.394,0,0,1,.811.267,11.7,11.7,0,0,1,1.84,1.562,7.138,7.138,0,0,0,2.183,1.529c1.684.652,3.285.054,4.874-.37.952-.254,1.824-.8,2.769-1.091a21.751,21.751,0,0,1,4.456-1,6.443,6.443,0,0,1,4.63.891c1.623,1.186,3.475,2.061,4.8,3.661a15.554,15.554,0,0,1,1.934,2.859c.753,1.481,1.279,3.057,1.941,4.575a36.476,36.476,0,0,1,1.45,3.639c.061.193-.122.513.228.6m-13.161-10.1c.209-.028.46.12.7-.108a2.285,2.285,0,0,0-.6-3.775,2.891,2.891,0,0,0-3.178.5.732.732,0,0,0-.223.28,6.6,6.6,0,0,0-.44,2.283c.071,1.035.394,1.294,1.409,1.151.29-.041.576-.107.862-.168a6.817,6.817,0,0,1,1.47-.164" fill="#f8c2c7"/>
      <path id="Trazado_3" data-name="Trazado 3" d="M158.535,55.39c-.35-.084-.167-.4-.228-.6a36.5,36.5,0,0,0-1.45-3.639c-.663-1.518-1.188-3.095-1.941-4.575a15.548,15.548,0,0,0-1.934-2.858c-1.324-1.6-3.176-2.475-4.8-3.661a6.443,6.443,0,0,0-4.63-.891,21.765,21.765,0,0,0-4.455,1c-.946.291-1.817.837-2.769,1.091-1.589.423-3.189,1.021-4.874.37a7.138,7.138,0,0,1-2.183-1.529,11.7,11.7,0,0,0-1.84-1.562,1.394,1.394,0,0,0-.811-.267,4.048,4.048,0,0,0-1.553.1,17.15,17.15,0,0,1,1.963-2.342,115.587,115.587,0,0,1,11.11-10.058c.286-.239.38-.13.538.11a10.316,10.316,0,0,0,2.089,2.295c2.3,1.9,4.465,1.13,5.956-.933a9.612,9.612,0,0,0,1.323-3.855c.042-.2.067-.405.108-.655a3.155,3.155,0,0,1,1.731,2.283,35.381,35.381,0,0,0,1.135,4.647,6.11,6.11,0,0,0,3.385,3.9,22.04,22.04,0,0,0,12.357,1.6c.634-.095.628-.093.422.522a100.439,100.439,0,0,1-5.062,12.584c-1.12,2.268-2.158,4.581-3.462,6.754a1.9,1.9,0,0,1-.124.164" fill="#fefefe"/>
      <path id="Trazado_4" data-name="Trazado 4" d="M188.476,25.846c-.736-.048-1.436-.084-2.134-.141a36.015,36.015,0,0,1-8.933-2.153c-1.6-.558-3.187-1.135-4.784-1.693a.738.738,0,0,1-.511-.4c-.569-1.528-1.852-1.829-3.252-1.936-3.305-.251-6.609-.526-9.925-.6a33.211,33.211,0,0,0-7.4.739,3.673,3.673,0,0,1-4.034-1.314,2.27,2.27,0,0,0-.473-.549c-.546-.389-.43-.88-.27-1.392a4.615,4.615,0,0,1,3.879-3.243,7.951,7.951,0,0,1,4.073.413c.425.14.5.366.239.731a1.448,1.448,0,0,1-.613.465,1.782,1.782,0,0,0-.61.386,1.008,1.008,0,0,0-.236.923c.066.317.379.262.6.3A6.637,6.637,0,0,0,159,15.214a24.837,24.837,0,0,1,3.6-2.148,5.738,5.738,0,0,1,3.245-.392.531.531,0,0,1,.5.486c.124.612.28,1.218.4,1.831a6.2,6.2,0,0,0,2.892,3.963,29.523,29.523,0,0,0,7.3,3.425,35.868,35.868,0,0,0,10.593,2.014,4.8,4.8,0,0,1,2.8.783.844.844,0,0,1,.391.832,7.905,7.905,0,0,1-.681,2.92,6.417,6.417,0,0,1-4.428,3.215c-.257.073-.369-.066-.478-.273a13.311,13.311,0,0,1-.609-1.6,4.259,4.259,0,0,0-.385-.85c-.442-.68-.548-.733-1.256-.422a1.716,1.716,0,0,1-2.006-.367c-.324-.307-.508-.205-.668.1-.2.384-.359.788-.536,1.183-.106.237-.2.482-.323.708-.333.6-.62.687-1.206.372-1.141-.614-2.356-1.081-3.453-1.781-.175-.111-.349-.225-.516-.347-.717-.524-.741-.541-.264-1.316.166-.269-.087-.408-.043-.626.14-.7.242-1.4.374-2.1.062-.332.29-.151.448-.107,1.462.41,2.933.784,4.42,1.092a34.069,34.069,0,0,0,7.553.792,2.981,2.981,0,0,0,1.262-.25.842.842,0,0,0,.547-.505" fill="#fefefe"/>
      <path id="Trazado_5" data-name="Trazado 5" d="M181.9,4.445a2.168,2.168,0,0,1,.865.937,6.65,6.65,0,0,1,1.116,5.68,5.816,5.816,0,0,1-2.913,3.5,25.091,25.091,0,0,1-7.98,2.937,3.831,3.831,0,0,1-4.114-2.286,2.187,2.187,0,0,1-.167-1.222c.192-1.2,1.023-1.158,1.779-.672a2.273,2.273,0,0,1,.595.645,4.043,4.043,0,0,0,.559.678c.224.207.48.435.825.217a.754.754,0,0,0,.332-.906c-.1-.35-.257-.681-.362-1.029-.258-.859.083-1.273.962-1.19a1.921,1.921,0,0,1,1.147.546,2.593,2.593,0,0,0,1.169.738c.416.094.641-.075.662-.49a3.389,3.389,0,0,0-.058-.671c-.023-.153-.09-.3-.118-.453-.091-.51-.291-1.1.22-1.446a1.366,1.366,0,0,1,1.548.209,4.3,4.3,0,0,0,.929.56.877.877,0,0,0,.925-.157c.25-.232.077-.521.009-.779a4.851,4.851,0,0,0-.633-1.129,1.2,1.2,0,0,1,.138-1.363,1,1,0,0,1,1.161-.361,1.092,1.092,0,0,0,1.287-.3,1.545,1.545,0,0,0,.258-1.745c-.067-.13-.194-.245-.141-.45" fill="#fdb54e"/>
      <path id="Trazado_6" data-name="Trazado 6" d="M151.508,27.032a3.475,3.475,0,0,1-.312-1.289,13.46,13.46,0,0,1-.079-2.547,1.9,1.9,0,0,1,1.268-1.739,10.378,10.378,0,0,1,3.849-.686,34.322,34.322,0,0,1,7.4.749c1.528.27,3.042.616,4.564.914a2.925,2.925,0,0,1,1.822,1.481c-.791-.18-1.568-.358-2.357-.48a11.844,11.844,0,0,0-5.624.229,8.053,8.053,0,0,1-3.444-.03,20.1,20.1,0,0,0-3.141-.258,1.1,1.1,0,0,0-.693.162,1.912,1.912,0,0,1-1.869.228c-1.083-.291-1.094-.295-1.286.805a9.805,9.805,0,0,0-.077,2.232,1.572,1.572,0,0,1-.02.23" fill="#7e7e83"/>
      <path id="Trazado_7" data-name="Trazado 7" d="M144.668,13.94l-.173-.088c-.016-.163-.116-.182-.248-.148a14.826,14.826,0,0,1-4.286-3.859,3.623,3.623,0,0,1-.51-3.857,10.751,10.751,0,0,1,2.18-3.051c.185.144.046.244.014.341-.153.46-.3.923-.476,1.375a1.232,1.232,0,0,0,.3,1.543c.258.221.31.42-.05.676-.335.238-.3.673-.236,1.062.028.188.167.171.3.207a8.173,8.173,0,0,0,1.436.175,4.669,4.669,0,0,1,.714.107.781.781,0,0,1,.673,1.033c-.074.443-.214.876-.279,1.321-.11.752.389,1.179,1.132,1a2.415,2.415,0,0,0,.825-.421.785.785,0,0,1,1.006-.042.888.888,0,0,1,.265,1.038,2.842,2.842,0,0,1-.986,1.307c-.526.135-1.008.523-1.6.281" fill="#fdb54e"/>
      <path id="Trazado_8" data-name="Trazado 8" d="M130.714,21.457a27.476,27.476,0,0,0,6.09.072c.273-.023.366.063.383.333a6.951,6.951,0,0,0,.4,2.137.309.309,0,0,1-.135.4c-.408.318-.816.637-1.219.962a.361.361,0,0,1-.381.08,17.605,17.605,0,0,1-3.741-1.615,4.1,4.1,0,0,1-1.656-2.068c-.079-.222-.131-.386.253-.3" fill="#fefefe"/>
      <path id="Trazado_9" data-name="Trazado 9" d="M138.05,14.774a9.6,9.6,0,0,1,.2,2.126,10.748,10.748,0,0,0,1.022,4.048,14.777,14.777,0,0,1,.925,3.24,5.173,5.173,0,0,0,1.171,2.454,2.529,2.529,0,0,0,3.113.46c.073-.04.141-.106.234-.051a2.437,2.437,0,0,1-2.987.755,4.5,4.5,0,0,1-2.208-2.175,12.623,12.623,0,0,1-1.687-6.409c-.016-1.318.026-2.633.062-3.948,0-.166-.031-.349.152-.5" fill="#7e7e83"/>
      <path id="Trazado_10" data-name="Trazado 10" d="M156.225,33.316a22.131,22.131,0,0,0,10.431.3,4.146,4.146,0,0,0,3.479-3.45l.15-.018c-.48,2.6-1.512,3.5-3.682,4a16.912,16.912,0,0,1-9.844-.469c-.178-.066-.349-.15-.523-.226l-.01-.142" fill="#f8c2c7"/>
      <path id="Trazado_11" data-name="Trazado 11" d="M139.685,13.208c1.62,1.379,3.329,2.642,5.017,3.932a3.721,3.721,0,0,1,1.6,3.514A15.37,15.37,0,0,1,146,23.1c0-.524-.047-1.352.01-2.172a3.584,3.584,0,0,0-1.644-3.365,29.677,29.677,0,0,1-4.428-3.832c-.128-.138-.292-.249-.344-.446l.092-.081" fill="#f8c2c7"/>
      <path id="Trazado_12" data-name="Trazado 12" d="M170.284,30.149l-.15.018a9.085,9.085,0,0,1,.423-2.026,3.891,3.891,0,0,1-.273,2.007" fill="#7e7e83"/>
      <path id="Trazado_13" data-name="Trazado 13" d="M144.668,13.94c.591.243,1.073-.146,1.6-.281-.141.12-.288.233-.422.36a.712.712,0,0,1-1.176-.079" fill="#7e7e83"/>
      <path id="Trazado_14" data-name="Trazado 14" d="M139.467,13.147c-.305-.123-.414-.421-.584-.669a1.342,1.342,0,0,1,.767.654l-.183.015" fill="#7e7e83"/>
      <path id="Trazado_15" data-name="Trazado 15" d="M156.225,33.316l.01.142a1.449,1.449,0,0,1-.84-.408c.288.054.6.01.83.266" fill="#7e7e83"/>
      <path id="Trazado_16" data-name="Trazado 16" d="M144.247,13.7c.132-.034.232-.015.248.148a.288.288,0,0,1-.248-.148" fill="#7e7e83"/>
      <path id="Trazado_17" data-name="Trazado 17" d="M139.467,13.147l.183-.015a.062.062,0,0,1,.034.077l-.092.08-.126-.142" fill="#f8c2c7"/>
      <path id="Trazado_18" data-name="Trazado 18" d="M145.374,45.288a6.817,6.817,0,0,0-1.47.164c-.286.061-.572.127-.862.168-1.014.143-1.338-.116-1.409-1.151a6.6,6.6,0,0,1,.44-2.283.732.732,0,0,1,.223-.28,2.891,2.891,0,0,1,3.178-.5,2.285,2.285,0,0,1,.6,3.775c-.237.229-.488.08-.7.108" fill="#080707"/>
      <path id="Trazado_19" data-name="Trazado 19" d="M98.25,31.629q0,4.248,0,8.5c0,1-.237,1.238-1.21,1.237-.674,0-1.348-.015-2.02,0a1.12,1.12,0,0,1-1.174-.75c-.114-.27-.281-.517-.4-.785-.139-.31-.278-.307-.54-.1a7.669,7.669,0,0,1-2.795,1.644c-3.005.725-5.767.411-7.994-2.007a8.1,8.1,0,0,1-1.981-4.5,11.514,11.514,0,0,1,.705-6.386,6.761,6.761,0,0,1,5.723-4.262,8.174,8.174,0,0,1,4.5.811c.593.275.627.256.629-.4q.008-2.163.01-4.326a2.519,2.519,0,0,1,.085-.664.575.575,0,0,1,.656-.5c1.606.02,3.212.008,4.818.009.713,0,.868.163.892.874.13,3.87.08,7.742.1,11.613M86.3,33.506a5,5,0,0,0,.313,1.75,2.391,2.391,0,0,0,3.081,1.52,8.056,8.056,0,0,0,1.546-.831.719.719,0,0,0,.383-.718c-.014-1.493-.052-2.989.027-4.478.035-.659-.043-1.11-.7-1.334-.1-.033-.181-.1-.275-.143a2.911,2.911,0,0,0-3.872,1.356,6.782,6.782,0,0,0-.5,2.878" fill="#fdb54e"/>
      <path id="Trazado_20" data-name="Trazado 20" d="M36.641,33.619c0,1.175.014,2.269-.008,3.362a.593.593,0,0,0,.49.681.9.9,0,0,1,.789.717c.078.412-.186.666-.482.907-.844.69-1.682,1.387-2.5,2.1a1.025,1.025,0,0,1-.848.262,3.8,3.8,0,0,1-2.371-1.161.506.506,0,0,0-.7-.112,11.1,11.1,0,0,1-7.429,1.088,4.581,4.581,0,0,1-3.765-3.636,4.789,4.789,0,0,1,1.924-5.23,9.572,9.572,0,0,1,6.609-1.729c.568.037,1.137.054,1.7.092.226.015.25-.085.236-.28A1.472,1.472,0,0,0,29.2,29.371a5.742,5.742,0,0,0-3.59.245c-.831.28-1.627.665-2.435,1.012a.8.8,0,0,1-1.216-.456c-.333-.74-.666-1.481-.965-2.236a.89.89,0,0,1,.421-1.313,13.285,13.285,0,0,1,4.359-1.755,11.5,11.5,0,0,1,3.266-.3,10.3,10.3,0,0,1,5.163,1.291,5.4,5.4,0,0,1,2.278,3.791,30.93,30.93,0,0,1,.157,3.97m-7.31,1.534c-.069.005-.137.011-.206.015a5.707,5.707,0,0,0-2.687.6.8.8,0,0,0-.455.856c.063.363.361.479.677.539a5.55,5.55,0,0,0,3.536-.615.3.3,0,0,0,.17-.338c-.043-1.368.259-1.074-1.036-1.06" fill="#010101"/>
      <path id="Trazado_21" data-name="Trazado 21" d="M71.605,33.645c0,1.238.015,2.263-.007,3.287a.643.643,0,0,0,.544.747.834.834,0,0,1,.716.658.886.886,0,0,1-.4.9c-.906.75-1.812,1.5-2.71,2.258a.722.722,0,0,1-.566.17,3.855,3.855,0,0,1-2.525-1.178.464.464,0,0,0-.644-.123,11.877,11.877,0,0,1-6,1.318A5.839,5.839,0,0,1,55.9,40.018a5.04,5.04,0,0,1,.45-7.131A9.178,9.178,0,0,1,62.8,30.839c.724.019,1.447.067,2.169.118.276.02.321-.09.281-.333a1.8,1.8,0,0,0-1.946-1.43,7.482,7.482,0,0,0-3.174.573c-.666.285-1.325.586-1.988.879a.822.822,0,0,1-1.249-.491q-.487-1.09-.947-2.191a.9.9,0,0,1,.415-1.319A12.8,12.8,0,0,1,61.053,24.8a13.611,13.611,0,0,1,6.7.381,5.193,5.193,0,0,1,3.677,4.367,25.844,25.844,0,0,1,.18,4.1m-7.328,1.507c-.223.012-.448.014-.67.039a5.338,5.338,0,0,0-2.18.554.83.83,0,0,0-.493.89c.077.377.406.475.741.536a5.575,5.575,0,0,0,3.489-.624.328.328,0,0,0,.2-.27c.179-1.038.05-1.19-.986-1.132l-.1.007" fill="#010101"/>
      <path id="Trazado_22" data-name="Trazado 22" d="M99.475,33.2a8.357,8.357,0,0,1,2.021-5.856,8.029,8.029,0,0,1,4.534-2.52,10.95,10.95,0,0,1,7.4.859,7.51,7.51,0,0,1,4.089,6.175,10.059,10.059,0,0,1-.272,4.024,7.568,7.568,0,0,1-5.918,5.512,11.209,11.209,0,0,1-6.771-.368A7.581,7.581,0,0,1,99.6,34.864a9.514,9.514,0,0,1-.127-1.659m12.1-.1c-.031-.311-.042-.625-.1-.931A2.655,2.655,0,0,0,109.6,29.9a2.934,2.934,0,0,0-3.172.644,3.892,3.892,0,0,0-.773,3.756A2.533,2.533,0,0,0,107.8,36.43a2.944,2.944,0,0,0,3.188-1.089,4.222,4.222,0,0,0,.593-2.234" fill="#fdb54e"/>
      <path id="Trazado_23" data-name="Trazado 23" d="M9.283,32.474c.265-.649.536-1.3.794-1.948q.9-2.29,1.8-4.584c.318-.819.533-.973,1.415-.972,1.278,0,2.555,0,3.832,0,.87,0,1.184.52.84,1.313q-3.151,7.26-6.278,14.53a1.282,1.282,0,0,1-1.387.9c-.9-.039-1.8-.027-2.692-.007a1.083,1.083,0,0,1-1.123-.731Q4.211,35.7,1.929,30.43C1.348,29.083.773,27.735.179,26.394c-.413-.934-.112-1.423.9-1.423q2.253,0,4.506,0a1.007,1.007,0,0,1,1.086.736c.807,2.256,1.652,4.5,2.484,6.745l.127.025" fill="#010101"/>
      <path id="Trazado_24" data-name="Trazado 24" d="M38.917,33.5a9.069,9.069,0,0,1,1.6-5.665,7.756,7.756,0,0,1,5.181-3.1,10.9,10.9,0,0,1,6.22.738,1.253,1.253,0,0,1,.846,1.206c.065,1.069.194,2.134.323,3.2a.91.91,0,0,1-.362,1c-.371.235-.68.042-1.008-.141a8.256,8.256,0,0,0-3.741-1.228A2.551,2.551,0,0,0,45.5,30.884a4.935,4.935,0,0,0-.469,3.187c.212,1.451,1.185,2.166,2.832,2.269a8.421,8.421,0,0,0,3.832-.909.991.991,0,0,1,1.023,0,.921.921,0,0,1,.338.973c-.152,1.117-.307,2.234-.449,3.352a1.168,1.168,0,0,1-.759,1.074,11.788,11.788,0,0,1-7.261.526,7.494,7.494,0,0,1-5.537-6.269c-.088-.621-.116-1.242-.13-1.58" fill="#010101"/>
      <path id="Trazado_25" data-name="Trazado 25" d="M77.37,48.565a4.507,4.507,0,0,1,.566-2.033,3.941,3.941,0,0,1,3.871-2.018c2.841.13,4.455,2.083,4.237,4.954a4.475,4.475,0,0,1-1.354,3.209,4.853,4.853,0,0,1-5.1.6c-1.531-.753-2.357-2.379-2.217-4.712m6.66.554a6.743,6.743,0,0,0,0-.729,2.325,2.325,0,0,0-4.608-.253,4.435,4.435,0,0,0,.036,2.064,2.3,2.3,0,0,0,4.5-.05,3.409,3.409,0,0,0,.073-1.033" fill="#010101"/>
      <path id="Trazado_26" data-name="Trazado 26" d="M4.362,50.991c.674-2.045,1.323-3.96,1.926-5.89.13-.415.311-.564.721-.5.469.069,1.122-.225,1.365.129.193.28-.222.845-.375,1.28C7.155,48.4,6.3,50.8,5.463,53.2c-.111.319-.245.494-.619.448-.508-.062-1.141.2-1.5-.1-.334-.275-.4-.892-.563-1.362C1.935,49.821,1.107,47.454.245,45.1c-.167-.456-.045-.532.375-.5.5.032,1.124-.162,1.465.075s.4.88.56,1.353c.5,1.473,1,2.949,1.5,4.423.048.143.111.28.217.546" fill="#010101"/>
      <path id="Trazado_27" data-name="Trazado 27" d="M27.648,52.841a2.822,2.822,0,0,1-2.594.824,1.847,1.847,0,0,1-1.561-1.633,1.792,1.792,0,0,1,1.252-2.022c.733-.262,1.512-.33,2.256-.544.159-.046.429,0,.437-.268a.661.661,0,0,0-.32-.662,1.341,1.341,0,0,0-1.741.478.308.308,0,0,1-.4.191,7.551,7.551,0,0,0-1.024-.133c-.325-.017-.3-.177-.235-.41a2.56,2.56,0,0,1,2.836-1.76,5.181,5.181,0,0,1,1.329.168A1.625,1.625,0,0,1,29.2,48.714c.034.918.006,1.838.009,2.757a4.15,4.15,0,0,0,.3,1.83c.121.251.045.348-.223.337a5.238,5.238,0,0,0-.672,0c-.532.048-1,.027-.964-.8m-1.488-.629c.841.008,1.326-.422,1.29-1.132-.008-.16-.011-.266-.223-.219-.5.113-1.013.2-1.514.317a.492.492,0,0,0-.412.419c-.021.254.152.4.36.518a1.019,1.019,0,0,0,.5.1" fill="#010101"/>
      <path id="Trazado_28" data-name="Trazado 28" d="M12.838,52.826a2.818,2.818,0,0,1-2.625.836,1.854,1.854,0,0,1-1.54-1.6,1.805,1.805,0,0,1,1.22-2.045c.747-.271,1.545-.34,2.305-.558.155-.044.427,0,.42-.283a.667.667,0,0,0-.339-.652,1.34,1.34,0,0,0-1.732.5c-.093.163-.17.22-.358.179-.268-.06-.545-.081-.817-.12C8.754,49,8.754,49,9,48.4a2.542,2.542,0,0,1,2.751-1.5,5.147,5.147,0,0,1,1.379.185,1.619,1.619,0,0,1,1.247,1.6c.036.762.017,1.526.014,2.289a5.3,5.3,0,0,0,.3,2.349c.1.223.05.322-.2.318a5.345,5.345,0,0,0-.827.006c-.546.077-.87-.087-.831-.818m-1.5-.614c.841.009,1.326-.421,1.291-1.131-.008-.158-.007-.268-.222-.22-.5.113-1.013.2-1.514.317a.493.493,0,0,0-.412.418c-.022.254.151.4.359.518a1.017,1.017,0,0,0,.5.1" fill="#010101"/>
      <path id="Trazado_29" data-name="Trazado 29" d="M115.526,50.824c-.6,0-1.208.011-1.812,0-.295-.008-.348.083-.272.364a1.307,1.307,0,0,0,.989,1.014c.607.1.862-.045,1.225-.687.041-.072.1-.2.144-.193a16.373,16.373,0,0,1,1.637.2c.178.035.032.237-.01.353a2.772,2.772,0,0,1-2.917,1.856c-2.2-.169-3.336-1.772-2.938-4.139a2.993,2.993,0,0,1,4.091-2.5,3.075,3.075,0,0,1,1.954,3.021c.03.718.03.718-.692.719h-1.4m-.943-1.221a7.228,7.228,0,0,1,.824.006c.432.05.415-.178.3-.456a1.083,1.083,0,0,0-1.024-.73,1.119,1.119,0,0,0-1.162.682c-.159.347-.11.555.343.5a6.41,6.41,0,0,1,.721,0" fill="#080707"/>
      <path id="Trazado_30" data-name="Trazado 30" d="M62.375,50.824c-.587,0-1.174,0-1.76,0-.213,0-.312.032-.257.293a1.342,1.342,0,0,0,.99,1.08c.605.109.9-.05,1.236-.669a.8.8,0,0,1,.1-.179,7.025,7.025,0,0,1,1.721.17c.1.12,0,.226-.034.335a2.787,2.787,0,0,1-2.908,1.875c-2.217-.159-3.353-1.768-2.947-4.176a2.982,2.982,0,0,1,4.065-2.471,3.053,3.053,0,0,1,1.971,3.006c.034.736.034.736-.674.736h-1.5M61.5,49.6c.309,0,.62-.018.927.005s.316-.122.249-.341a1.076,1.076,0,0,0-.941-.835,1.124,1.124,0,0,0-1.246.613c-.228.465-.174.555.34.557.223,0,.447,0,.67,0" fill="#080707"/>
      <path id="Trazado_31" data-name="Trazado 31" d="M68.713,46.895a2.564,2.564,0,0,1,2.8,1.75c.091.275.1.422-.248.428a6.4,6.4,0,0,0-.717.093c-.362.048-.682.139-.9-.36-.186-.434-1.468-.531-1.852-.222-.229.185-.155.45.2.565.425.137.867.221,1.3.337a11.986,11.986,0,0,1,1.288.374,1.8,1.8,0,0,1,.608,3.1c-1.438,1.419-4.552.858-5.321-.958-.249-.586-.248-.585.353-.653.188-.021.376-.05.564-.08.422-.068.756-.11.978.445.228.571,1.572.7,2.036.278.277-.251.2-.588-.195-.7-.6-.168-1.2-.293-1.806-.447a4.959,4.959,0,0,1-.685-.226A1.705,1.705,0,0,1,65.948,49a1.824,1.824,0,0,1,1.1-1.789,4.44,4.44,0,0,1,1.665-.317" fill="#010101"/>
      <path id="Trazado_32" data-name="Trazado 32" d="M49.109,50.3a3.3,3.3,0,0,1-3.371,3.441,3.238,3.238,0,0,1-3.366-3.484,3.368,3.368,0,1,1,6.737.043m-1.866.051c.006-1.027-.452-1.769-1.179-1.909-.928-.178-1.641.409-1.8,1.478-.172,1.176.387,2.184,1.267,2.286.034,0,.069,0,.1,0,.978.048,1.6-.671,1.606-1.86" fill="#010101"/>
      <path id="Trazado_33" data-name="Trazado 33" d="M73.871,38.565c0-.66-.007-1.32,0-1.979.008-.587.244-.82.82-.822q1.605,0,3.21,0c.563,0,.795.218.8.783q.021,2.005.009,4.011c0,.548-.249.792-.8.8-1.087.01-2.175.009-3.262,0-.529,0-.773-.26-.78-.814-.009-.66,0-1.32,0-1.979" fill="#010101"/>
      <path id="Trazado_34" data-name="Trazado 34" d="M52.592,47.771a2.737,2.737,0,0,1,2.814-.739,1.752,1.752,0,0,1,1.361,1.755c.041,1.51.017,3.023.032,4.534,0,.257-.1.311-.335.323C55,53.719,55,53.725,55,52.273c0-.92,0-1.842-.042-2.76-.038-.77-.322-1.069-.91-1.089a1.193,1.193,0,0,0-1.3,1.072,28.239,28.239,0,0,0-.092,3.434c0,.707,0,.707-.721.707-1.077,0-1.077,0-1.077-1.078,0-1.7.011-3.406-.008-5.108,0-.368.1-.506.464-.456a3.45,3.45,0,0,0,.466,0c.739,0,.739,0,.818.772" fill="#010101"/>
      <path id="Trazado_35" data-name="Trazado 35" d="M89.564,47.784a2.82,2.82,0,0,1,2.566-.818,1.8,1.8,0,0,1,1.631,1.742c.057,1.544.025,3.092.039,4.638,0,.23-.089.318-.307.292a.33.33,0,0,0-.052,0C92,53.7,92,53.7,92,52.248c0-.938,0-1.876-.046-2.812-.033-.663-.32-.966-.828-1.01a1.18,1.18,0,0,0-1.338.893,9.266,9.266,0,0,0-.13,1.552c-.02.781-.024,1.564,0,2.345.013.359-.115.459-.443.425-.44-.047-1.029.192-1.284-.107-.217-.256-.076-.828-.077-1.26,0-1.616.009-3.232-.01-4.848,0-.349.1-.472.437-.432a4.886,4.886,0,0,0,.569,0c.683,0,.683,0,.712.786" fill="#010101"/>
      <path id="Trazado_36" data-name="Trazado 36" d="M105.625,47.786a2.829,2.829,0,0,1,2.565-.82,1.811,1.811,0,0,1,1.64,1.79c.049,1.527.021,3.057.034,4.586,0,.225-.08.323-.3.3a.306.306,0,0,0-.052,0c-1.446.067-1.441.067-1.447-1.385,0-.938,0-1.876-.046-2.812-.033-.666-.318-.968-.824-1.014a1.177,1.177,0,0,0-1.34.888,9.7,9.7,0,0,0-.133,1.6c-.021.781-.017,1.564,0,2.346.007.3-.094.375-.384.381-1.419.032-1.419.04-1.419-1.367,0-1.616.01-3.232-.008-4.848,0-.342.087-.479.432-.436a4.666,4.666,0,0,0,.569,0c.69,0,.69,0,.713.788" fill="#010101"/>
      <path id="Trazado_37" data-name="Trazado 37" d="M18.063,50.146a3.839,3.839,0,0,0,.141,1.2,1.156,1.156,0,0,0,1.2.864.99.99,0,0,0,1.061-.867c.079-.308.174-.393.482-.326a7.07,7.07,0,0,0,1.078.129c.289.017.328.117.257.393a2.835,2.835,0,0,1-3.1,2.187A3.088,3.088,0,0,1,16.167,50.2,3.129,3.129,0,0,1,20.251,47a2.61,2.61,0,0,1,1.958,1.945c.06.191.059.3-.167.319-.446.047-.892.093-1.335.16-.179.027-.233-.044-.3-.193-.309-.723-.6-.9-1.3-.8a1.193,1.193,0,0,0-.994,1.11c-.038.239-.046.482-.057.6" fill="#010101"/>
      <path id="Trazado_38" data-name="Trazado 38" d="M32.888,50.277a3.368,3.368,0,0,0,.139,1.077,1.157,1.157,0,0,0,1.207.858.987.987,0,0,0,1.055-.873c.08-.317.189-.381.488-.318a7.271,7.271,0,0,0,1.078.128c.3.017.317.135.249.4a2.836,2.836,0,0,1-3,2.191,2.955,2.955,0,0,1-3.022-2.462,4.921,4.921,0,0,1,.037-2.066,2.944,2.944,0,0,1,3.191-2.3,2.676,2.676,0,0,1,2.706,2c.074.244.068.353-.21.37-.258.016-.514.057-.77.094-.426.062-.8.136-.955-.475-.112-.431-.574-.489-1-.472a1.1,1.1,0,0,0-1.016.681,2.61,2.61,0,0,0-.179,1.173" fill="#010101"/>
      <path id="Trazado_39" data-name="Trazado 39" d="M95.955,49.119c0-1.372.009-2.743-.007-4.114,0-.319.089-.408.407-.413,1.416-.02,1.415-.031,1.415,1.375,0,2.4-.008,4.792.008,7.188,0,.387-.1.5-.491.493-1.332-.017-1.332,0-1.332-1.352Z" fill="#010101"/>
      <path id="Trazado_40" data-name="Trazado 40" d="M38.744,50.306c0-.955.012-1.909-.007-2.864-.006-.324.059-.451.419-.454,1.4-.01,1.4-.024,1.4,1.388,0,1.6-.009,3.194.007,4.79,0,.345-.064.518-.45.477a4.523,4.523,0,0,0-.93,0c-.382.039-.456-.127-.448-.474.021-.954.007-1.909.007-2.864" fill="#010101"/>
      <path id="Trazado_41" data-name="Trazado 41" d="M101.812,50.334c0,.955-.01,1.909.005,2.864.005.322-.061.488-.428.445-.441-.051-1.014.182-1.3-.091s-.087-.854-.09-1.3c-.012-1.6,0-3.194-.012-4.79,0-.35.073-.476.45-.476,1.373,0,1.373-.012,1.373,1.367v1.979" fill="#010101"/>
      <path id="Trazado_42" data-name="Trazado 42" d="M39.635,46.236c-.892,0-.892,0-.892-.794,0-.844,0-.844.895-.844.924,0,.924,0,.924.872,0,.766,0,.766-.926.766" fill="#080707"/>
      <path id="Trazado_43" data-name="Trazado 43" d="M100.921,44.6c.894,0,.894,0,.894.9,0,.735,0,.735-.8.735-1.017,0-1.017,0-1.017-.928,0-.709,0-.709.925-.709" fill="#080707"/>
    </g>
  </svg>
  