<svg xmlns="http://www.w3.org/2000/svg" width="467.486" height="230.299" viewBox="0 0 467.486 230.299">
    <g id="Grupo_7" data-name="Grupo 7" transform="translate(252.575 2037.002)">
      <g id="Grupo_19" data-name="Grupo 19">
        <path id="Trazado_23" data-name="Trazado 23" d="M-144.262-1919.99a10.5,10.5,0,0,1-4.122-.844l-61.233-25.963-28.862,10.642a10.477,10.477,0,0,1-13.449-6.208,10.478,10.478,0,0,1,6.208-13.449l32.81-12.095a10.387,10.387,0,0,1,7.8.231l61.1,25.927,89.481-33.659a10.473,10.473,0,0,1,13.49,6.116,10.459,10.459,0,0,1-6.116,13.49l-93.419,35.142A10.582,10.582,0,0,1-144.262-1919.99Z" fill="#fdb54e"/>
      </g>
      <g id="Grupo_20" data-name="Grupo 20">
        <path id="Trazado_24" data-name="Trazado 24" d="M-47.591-1985.007a10.474,10.474,0,0,1-9.818-6.837,10.469,10.469,0,0,1,6.177-13.46l35.685-13.224a10.265,10.265,0,0,1,5.972-.389L35.09-2008.7c4.551-1.764,9.348-3.707,14.3-5.717,23.4-9.481,49.88-20.22,73.26-21.411,28.975-5.462,49.758,9.665,53.695,15.556a10.462,10.462,0,0,1-2.884,14.523,10.468,10.468,0,0,1-13.858-1.989c-1.32-1.146-13.767-11.363-33.649-7.395a10.111,10.111,0,0,1-1.616.195c-19.954.833-44.992,10.979-67.073,19.933-6.2,2.511-12.15,4.925-17.7,7.022a10.436,10.436,0,0,1-6.034.409L-11.2-1997.8l-32.749,12.135A10.459,10.459,0,0,1-47.591-1985.007Z" fill="#fdb54e"/>
      </g>
      <path id="Trazado_25" data-name="Trazado 25" d="M214.872-1974.743c-1.152-5.173-1.725-13.219-25.319-14.965a60.327,60.327,0,0,0-13.231,1.169c-1.162-1.725-17.844-16.12-43.745-10.946-27.618,1.149-62.142,17.846-88.043,27.618l-47.761-10.921-35.685,13.222,23.6,19.567h.573l-120.843,45.459-28.2-12.074-14.381-5.75-22.444-9.794-32.81,12.1,2.884,4.024,24.74,25.317,2.878,2.875-9.786,20.716,17.844-6.323,3.451-3.452,2.307,2.876,14.957,14.971,28.777,29.341h.576c.576.573,1.725.573,3.448,1.146,9.786,1.726,32.228-1.723,60.43-11.5a2.087,2.087,0,0,1-1.736-.6c-1.727-.574-4.6-3.449-6.9-7.47a40.2,40.2,0,0,1-1.726-4.6c-2.872-6.9-2.3-12.67-1.149-14.966a1.238,1.238,0,0,1,1.149-1.152h0a4.345,4.345,0,0,1,2.3.576c2.3,1.15,5.75,5.174,8.06,11.518a38.885,38.885,0,0,0,1.723,4.6v.577c4.025-1.729,6.908-2.876,8.058-3.452l47.76-17.84L-62.505-1806.7l47.2-17.84,81.132-81.723,81.722-30.49,10.357-4.024c.576,0,.576,0,1.149-.574,13.237-5.173,1.152,0,27.63-12.1,30.49-12.074,28.191-21.293,28.191-21.293Z" fill="#fff" fill-rule="evenodd"/>
    </g>
  </svg>
  