<svg xmlns="http://www.w3.org/2000/svg" xmlns:xlink="http://www.w3.org/1999/xlink" width="99.1" height="95.683" viewBox="0 0 99.1 95.683">
    <defs>
      <clipPath id="clip-path">
        <rect id="Rectángulo_43" data-name="Rectángulo 43" width="99.1" height="95.683" fill="none"/>
      </clipPath>
    </defs>
    <g id="Grupo_21" data-name="Grupo 21" clip-path="url(#clip-path)">
      <path id="Trazado_87" data-name="Trazado 87" d="M0,88.237l30.737,7.446V38.829L0,31.377ZM48.247,0a17.589,17.589,0,0,0-17.61,17.591c0,7.414,11.123,28.1,17.61,39.217,6.488-11.114,17.61-31.8,17.61-39.217A17.587,17.587,0,0,0,48.247,0M34.965,17.591a13.286,13.286,0,1,1,26.566,0,13.283,13.283,0,0,1-26.566,0m33.4,70.646L99.1,95.683V38.829L68.366,31.377Z" fill="#fff" fill-rule="evenodd"/>
      <path id="Trazado_88" data-name="Trazado 88" d="M34.091,38.829V95.683l30.923-7.446V31.377l-1.168.359-15.6,32.357L35.478,38.47Z" fill="#fdb54e" fill-rule="evenodd"/>
      <path id="Trazado_89" data-name="Trazado 89" d="M40.52,17.591a7.724,7.724,0,1,0,7.727-7.72,7.654,7.654,0,0,0-7.727,7.72" fill="#fdb54e" fill-rule="evenodd"/>
    </g>
  </svg>
  