<svg xmlns="http://www.w3.org/2000/svg" xmlns:xlink="http://www.w3.org/1999/xlink" width="67" height="83" viewBox="0 0 67 83">
    <defs>
      <clipPath id="clip-path">
        <rect id="Rectángulo_23" data-name="Rectángulo 23" width="67" height="83" fill="none"/>
      </clipPath>
    </defs>
    <g id="Grupo_13" data-name="Grupo 13" clip-path="url(#clip-path)">
      <path id="Trazado_65" data-name="Trazado 65" d="M33.566,38.752c1.2.279,2.466.5,3.686.872a117.986,117.986,0,0,1,19.779,8.327c3.07,1.591,6.022,3.409,8.995,5.177,1.224.728,1.239,1.111.358,2.177a33.324,33.324,0,0,0-6.271,11.8,6.156,6.156,0,0,1-4.265,4.377,72.692,72.692,0,0,0-15.46,7.054c-1.763,1.117-3.417,2.409-5.085,3.668-1.278.965-2.251,1.095-3.392.133-5.53-4.663-12-7.616-18.708-10.138-.927-.348-1.85-.71-2.789-1.023a4.963,4.963,0,0,1-3.329-3.5A36.026,36.026,0,0,0,2.325,57.6c-.527-.761-1.093-1.5-1.67-2.223-.941-1.183-.913-1.442.376-2.305a101.318,101.318,0,0,1,13.545-7.4,104.708,104.708,0,0,1,16-6.279c.949-.267,1.933-.414,2.986-.634" fill="#20221d"/>
      <path id="Trazado_66" data-name="Trazado 66" d="M59.585,44.464c-1.41-.7-2.646-1.271-3.828-1.936a1.539,1.539,0,0,1-.49-.958c-.831-3.808-1.661-7.616-2.433-11.436A1.718,1.718,0,0,0,51.446,28.6a4.157,4.157,0,0,1-3.235-3.57c-.459-2.439-1.037-4.856-1.527-7.29A1.432,1.432,0,0,0,45.549,16.5a43.326,43.326,0,0,0-14.88-1.583,45.2,45.2,0,0,0-9.035,1.527,1.644,1.644,0,0,0-1.362,1.442c-.457,2.41-1.039,4.8-1.51,7.2a4.035,4.035,0,0,1-3.032,3.443A2.038,2.038,0,0,0,14.1,30.367c-.727,3.711-1.573,7.4-2.335,11.1a1.76,1.76,0,0,1-1.108,1.413c-1.034.449-2.036.972-3.231,1.551.061-.5.076-.822.143-1.138,1.064-5.028,2.158-10.049,3.189-15.083a2.963,2.963,0,0,1,2.322-2.619,2.8,2.8,0,0,0,2.376-2.719c.368-2.364.976-4.69,1.455-7.038a2.772,2.772,0,0,1,2.115-2.391c2.6-.636,5.2-1.274,7.818-1.824.791-.166,1.151-.393,1.132-1.258-.054-2.367-.025-4.735-.014-7.1.01-2.184,1.079-3.238,3.289-3.252q2.276-.014,4.552,0c2.13.015,3.219,1.1,3.23,3.228.012,2.339.042,4.679-.015,7.016-.022.913.314,1.2,1.2,1.378,2.566.516,5.11,1.147,7.653,1.771A2.9,2.9,0,0,1,50.1,15.9c.544,2.717,1.162,5.42,1.719,8.135a1.254,1.254,0,0,0,1.021,1.135c2.264.471,3.258,1.869,3.662,4.124.848,4.743,1.968,9.438,2.971,14.153.053.248.059.505.116,1.018" fill="#fdb54e"/>
      <path id="Trazado_67" data-name="Trazado 67" d="M42.687,23.419c.032.585-.415.441-.827.371-1.434-.245-2.861-.564-4.306-.715a36.958,36.958,0,0,0-12.169.638c-1.119.256-1.189.212-.965-.9.542-2.7-.137-2.362,2.98-2.877a37.818,37.818,0,0,1,13.651.248,1.392,1.392,0,0,1,1.31,1.346c.066.6.2,1.194.327,1.894" fill="#fdb54e"/>
      <path id="Trazado_68" data-name="Trazado 68" d="M29.018,34.253c-.9.039-1.153-.251-1.071-1.059.038-.371,0-.749.007-1.124.005-1.224.141-1.386,1.415-1.395q4.148-.028,8.3,0c1.214.009,1.362.185,1.369,1.353.014,2.2.014,2.208-2.158,2.164-.611-.012-5.853-.028-7.858.059" fill="#fdb54e"/>
      <path id="Trazado_69" data-name="Trazado 69" d="M17.343,36.438c.208-1.088.373-2.133.628-3.156a1.041,1.041,0,0,1,.649-.6c1.876-.5,3.765-.956,5.653-1.414.475-.115.733.113.741.583a19.682,19.682,0,0,1-.028,2.241.925.925,0,0,1-.55.647c-2.3.582-4.61,1.114-7.093,1.7" fill="#fdb54e"/>
      <path id="Trazado_70" data-name="Trazado 70" d="M49.64,36.532c-.369-.082-.586-.123-.8-.178-1.938-.5-3.868-1.026-5.817-1.475-.737-.17-1.154-.435-1.07-1.253a15.378,15.378,0,0,0,.011-1.638c0-.591.247-.864.868-.711q2.662.655,5.325,1.3a1.257,1.257,0,0,1,1.01,1.148c.139.9.3,1.793.472,2.807" fill="#fdb54e"/>
      <path id="Trazado_71" data-name="Trazado 71" d="M28.127,54.037a4.835,4.835,0,0,0-1.3-3.488A2.332,2.332,0,0,0,23.4,50.5a5.273,5.273,0,0,0-.022,7,2.338,2.338,0,0,0,3.425-.015,4.763,4.763,0,0,0,1.322-3.446" fill="#fff"/>
      <path id="Trazado_72" data-name="Trazado 72" d="M44.938,54.1a4.781,4.781,0,0,0-1.388-3.633,2.321,2.321,0,0,0-3.3-.008,5.263,5.263,0,0,0-.036,7.063,2.34,2.34,0,0,0,3.426-.06,4.763,4.763,0,0,0,1.3-3.361" fill="#fff"/>
    </g>
  </svg>
  