<svg xmlns="http://www.w3.org/2000/svg" xmlns:xlink="http://www.w3.org/1999/xlink" width="98" height="122" viewBox="0 0 98 122">
    <defs>
      <clipPath id="clip-path">
        <rect id="Rectángulo_46" data-name="Rectángulo 46" width="98" height="122" fill="none"/>
      </clipPath>
    </defs>
    <g id="Grupo_27" data-name="Grupo 27" clip-path="url(#clip-path)">
      <path id="Trazado_97" data-name="Trazado 97" d="M49.1,56.961c1.752.41,3.607.733,5.391,1.281a172.117,172.117,0,0,1,28.931,12.24c4.49,2.339,8.808,5.01,13.157,7.61,1.79,1.07,1.812,1.633.524,3.2a49.062,49.062,0,0,0-9.173,17.349,9.028,9.028,0,0,1-6.238,6.433,106.078,106.078,0,0,0-22.613,10.369c-2.579,1.642-5,3.541-7.438,5.392-1.87,1.419-3.293,1.609-4.961.2-8.089-6.854-17.55-11.2-27.364-14.9-1.356-.512-2.706-1.043-4.079-1.5a7.28,7.28,0,0,1-4.869-5.146A53.07,53.07,0,0,0,3.4,84.662c-.771-1.119-1.6-2.2-2.442-3.268-1.377-1.74-1.335-2.119.551-3.389A147.975,147.975,0,0,1,21.32,67.122a152.709,152.709,0,0,1,23.408-9.23c1.389-.392,2.827-.608,4.368-.931" fill="#fff"/>
      <path id="Trazado_98" data-name="Trazado 98" d="M87.155,65.356c-2.062-1.03-3.87-1.868-5.6-2.846a2.266,2.266,0,0,1-.717-1.408c-1.216-5.6-2.429-11.195-3.559-16.81a2.521,2.521,0,0,0-2.03-2.254,6.1,6.1,0,0,1-4.732-5.247c-.672-3.585-1.516-7.138-2.233-10.715a2.1,2.1,0,0,0-1.659-1.821,63.077,63.077,0,0,0-21.765-2.327,65.815,65.815,0,0,0-13.215,2.244,2.412,2.412,0,0,0-1.993,2.12c-.669,3.542-1.52,7.051-2.209,10.59a5.921,5.921,0,0,1-4.434,5.061,2.991,2.991,0,0,0-2.388,2.693c-1.063,5.454-2.3,10.874-3.416,16.319a2.584,2.584,0,0,1-1.621,2.077c-1.513.66-2.979,1.429-4.726,2.279.089-.728.111-1.208.209-1.673,1.557-7.39,3.156-14.771,4.665-22.17.408-2,1.4-3.425,3.4-3.85,2.26-.48,3.134-1.8,3.475-4,.538-3.474,1.428-6.894,2.128-10.344a4.068,4.068,0,0,1,3.093-3.514c3.8-.934,7.605-1.873,11.435-2.681,1.156-.244,1.684-.577,1.655-1.85-.079-3.479-.037-6.96-.021-10.441.014-3.21,1.579-4.759,4.811-4.78q3.329-.02,6.659,0c3.116.022,4.708,1.614,4.724,4.744.018,3.438.061,6.877-.022,10.313-.033,1.342.459,1.764,1.753,2.025,3.754.758,7.474,1.685,11.194,2.6a4.247,4.247,0,0,1,3.263,3.673c.8,3.994,1.7,7.967,2.514,11.957a1.84,1.84,0,0,0,1.493,1.668c3.312.692,4.765,2.748,5.356,6.062,1.241,6.971,2.879,13.872,4.346,20.8.077.364.087.743.17,1.5" fill="#fdb54e"/>
      <path id="Trazado_99" data-name="Trazado 99" d="M62.438,34.423c.047.86-.607.649-1.21.545-2.1-.36-4.185-.829-6.3-1.051a53.8,53.8,0,0,0-17.8.938c-1.636.376-1.74.311-1.412-1.33.792-3.973-.2-3.472,4.358-4.229a55.05,55.05,0,0,1,19.968.365,2.041,2.041,0,0,1,1.916,1.978c.1.884.3,1.755.478,2.784" fill="#fdb54e"/>
      <path id="Trazado_100" data-name="Trazado 100" d="M42.444,50.347c-1.316.057-1.686-.369-1.566-1.556.055-.546.007-1.1.01-1.652.008-1.8.206-2.038,2.07-2.05q6.067-.041,12.134,0c1.776.013,1.991.272,2,1.989.021,3.239.021,3.245-3.157,3.181-.894-.018-8.561-.041-11.494.087" fill="#fdb54e"/>
      <path id="Trazado_101" data-name="Trazado 101" d="M25.368,53.559c.3-1.6.546-3.135.919-4.639a1.525,1.525,0,0,1,.949-.885c2.744-.736,5.507-1.405,8.269-2.079.695-.169,1.072.166,1.083.857a29.072,29.072,0,0,1-.041,3.294,1.357,1.357,0,0,1-.8.951c-3.362.856-6.744,1.637-10.375,2.5" fill="#fdb54e"/>
      <path id="Trazado_102" data-name="Trazado 102" d="M72.607,53.7c-.54-.12-.857-.181-1.169-.262-2.835-.729-5.658-1.508-8.508-2.169-1.077-.25-1.687-.639-1.566-1.842a22.714,22.714,0,0,0,.017-2.408c-.005-.868.361-1.27,1.27-1.045q3.893.962,7.789,1.912a1.845,1.845,0,0,1,1.478,1.688c.2,1.32.439,2.635.69,4.126" fill="#fdb54e"/>
      <path id="Trazado_103" data-name="Trazado 103" d="M41.142,79.427a7.127,7.127,0,0,0-1.9-5.127,3.4,3.4,0,0,0-5.008-.078c-2.6,2.443-2.618,7.828-.032,10.292a3.408,3.408,0,0,0,5.01-.021,7.02,7.02,0,0,0,1.934-5.065" fill="#20221d"/>
      <path id="Trazado_104" data-name="Trazado 104" d="M65.73,79.52a7.046,7.046,0,0,0-2.03-5.34,3.383,3.383,0,0,0-4.825-.012c-2.666,2.428-2.693,7.917-.052,10.381a3.412,3.412,0,0,0,5.011-.088,7.021,7.021,0,0,0,1.9-4.94" fill="#20221d"/>
    </g>
  </svg>
  