<svg id="hoteles" xmlns="http://www.w3.org/2000/svg" width="90" height="66" viewBox="0 0 90 66">
    <path id="Trazado_47" data-name="Trazado 47"
        d="M30.162,0V6.789h-7.91V66H36.909V45.088H52.493V66H67.266V6.789H59.24V0Z" fill="#20221d" />
    <rect id="Rectángulo_3" data-name="Rectángulo 3" width="6.399" height="6.555"
        transform="translate(47.957 6.528)" fill="#fff" />
    <rect id="Rectángulo_4" data-name="Rectángulo 4" width="6.399" height="6.438"
        transform="translate(35.047 32.274)" fill="#fff" />
    <rect id="Rectángulo_5" data-name="Rectángulo 5" width="6.399" height="6.322"
        transform="translate(35.047 19.518)" fill="#fff" />
    <rect id="Rectángulo_6" data-name="Rectángulo 6" width="6.399" height="6.555"
        transform="translate(35.047 6.528)" fill="#fff" />
    <rect id="Rectángulo_7" data-name="Rectángulo 7" width="6.399" height="6.438"
        transform="translate(47.957 32.274)" fill="#fff" />
    <rect id="Rectángulo_8" data-name="Rectángulo 8" width="6.399" height="6.322"
        transform="translate(47.957 19.518)" fill="#fff" />
    <rect id="Rectángulo_9" data-name="Rectángulo 9" width="19.469" height="38.277"
        transform="translate(0 27.723)" fill="#fdb54e" />
    <rect id="Rectángulo_10" data-name="Rectángulo 10" width="6.399" height="6.555"
        transform="translate(6.535 32.215)" fill="#fff" />
    <rect id="Rectángulo_11" data-name="Rectángulo 11" width="6.399" height="6.555"
        transform="translate(25.071 32.215)" fill="#fff" />
    <rect id="Rectángulo_12" data-name="Rectángulo 12" width="6.399" height="6.555"
        transform="translate(6.535 45.088)" fill="#fff" />
    <rect id="Rectángulo_13" data-name="Rectángulo 13" width="6.399" height="6.555"
        transform="translate(25.071 45.088)" fill="#fff" />
    <rect id="Rectángulo_14" data-name="Rectángulo 14" width="19.469" height="38.277"
        transform="translate(70.531 27.723)" fill="#fdb54e" />
    <rect id="Rectángulo_15" data-name="Rectángulo 15" width="6.399" height="6.555"
        transform="translate(58.556 32.215)" fill="#fff" />
    <rect id="Rectángulo_16" data-name="Rectángulo 16" width="6.399" height="6.555"
        transform="translate(77.066 32.215)" fill="#fff" />
    <rect id="Rectángulo_17" data-name="Rectángulo 17" width="6.399" height="6.555"
        transform="translate(58.556 45.088)" fill="#fff" />
    <rect id="Rectángulo_18" data-name="Rectángulo 18" width="6.399" height="6.555"
        transform="translate(77.066 45.088)" fill="#fff" />
</svg>
  