<svg id="Vector_Smart_Object" data-name="Vector Smart Object" xmlns="http://www.w3.org/2000/svg" width="96.736" height="70.584" viewBox="0 0 96.736 70.584">
    <path id="Trazado_76" data-name="Trazado 76" d="M32.419,0V7.261h-8.5V70.584H39.671V48.22H56.422V70.584H72.3V7.261H63.674V0Z" fill="#20221d"/>
    <rect id="Rectángulo_25" data-name="Rectángulo 25" width="6.878" height="7.011" transform="translate(51.546 6.981)" fill="#fff"/>
    <rect id="Rectángulo_26" data-name="Rectángulo 26" width="6.878" height="6.885" transform="translate(37.67 34.515)" fill="#fff"/>
    <rect id="Rectángulo_27" data-name="Rectángulo 27" width="6.878" height="6.761" transform="translate(37.67 20.874)" fill="#fff"/>
    <rect id="Rectángulo_28" data-name="Rectángulo 28" width="6.878" height="7.011" transform="translate(37.67 6.981)" fill="#fff"/>
    <rect id="Rectángulo_29" data-name="Rectángulo 29" width="6.878" height="6.885" transform="translate(51.546 34.515)" fill="#fff"/>
    <rect id="Rectángulo_30" data-name="Rectángulo 30" width="6.878" height="6.761" transform="translate(51.546 20.874)" fill="#fff"/>
    <rect id="Rectángulo_31" data-name="Rectángulo 31" width="20.926" height="40.936" transform="translate(0 29.649)" fill="#fff"/>
    <rect id="Rectángulo_32" data-name="Rectángulo 32" width="6.878" height="7.011" transform="translate(7.024 34.453)" fill="#fdb54e"/>
    <rect id="Rectángulo_33" data-name="Rectángulo 33" width="6.878" height="7.011" transform="translate(26.948 34.453)" fill="#fff"/>
    <rect id="Rectángulo_34" data-name="Rectángulo 34" width="6.878" height="7.011" transform="translate(7.024 48.22)" fill="#fdb54e"/>
    <rect id="Rectángulo_35" data-name="Rectángulo 35" width="6.878" height="7.011" transform="translate(26.948 48.22)" fill="#fff"/>
    <rect id="Rectángulo_36" data-name="Rectángulo 36" width="20.926" height="40.936" transform="translate(75.81 29.649)" fill="#fff"/>
    <rect id="Rectángulo_37" data-name="Rectángulo 37" width="6.878" height="7.011" transform="translate(62.938 34.453)" fill="#fff"/>
    <rect id="Rectángulo_38" data-name="Rectángulo 38" width="6.878" height="7.011" transform="translate(82.834 34.453)" fill="#fdb54e"/>
    <rect id="Rectángulo_39" data-name="Rectángulo 39" width="6.878" height="7.011" transform="translate(62.938 48.22)" fill="#fff"/>
    <rect id="Rectángulo_40" data-name="Rectángulo 40" width="6.878" height="7.011" transform="translate(82.834 48.22)" fill="#fdb54e"/>
  </svg>
  