<svg xmlns="http://www.w3.org/2000/svg" xmlns:xlink="http://www.w3.org/1999/xlink" width="77" height="78" viewBox="0 0 77 78">
    <defs>
      <clipPath id="clip-path">
        <rect id="Rectángulo_24" data-name="Rectángulo 24" width="77" height="78" fill="none"/>
      </clipPath>
    </defs>
    <g id="Grupo_15" data-name="Grupo 15" clip-path="url(#clip-path)">
      <path id="Trazado_73" data-name="Trazado 73" d="M76.073,23.644,70.866,22.3l-2.672-.686q-.107,1.785-.337,3.55A55.149,55.149,0,0,1,48.58,60.544L38.5,68.819l-8.87-7.262-1.212-1.013c-.435-.366-.862-.732-1.284-1.111l-1.582,1.549-3.2,3.124A71.386,71.386,0,0,1,.052,9.433L17.235,0,18.63.759A40.74,40.74,0,0,0,38.5,5.694,40.733,40.733,0,0,0,58.371.759L59.765,0,76.948,9.433a71.5,71.5,0,0,1-.875,14.211" fill="#20221d"/>
      <path id="Trazado_74" data-name="Trazado 74" d="M70.149,25.408l-.057.353A60.153,60.153,0,0,1,49.348,62.389L38.5,71.287,28.013,62.7l-3.7,3.622.27.233c.21.182.427.364.643.546L38.5,78,51.731,67.142a71.183,71.183,0,0,0,15.4-18.052,71.688,71.688,0,0,0,8.615-21.913l.065-.307Z" fill="#fdb54e"/>
      <path id="Trazado_75" data-name="Trazado 75" d="M55.948,26.805a9.408,9.408,0,0,0-2.216-.42,33.6,33.6,0,0,1-3.558-.417,3.369,3.369,0,0,1-1.385-.589c-.175-.134-.18-.242-.021-.4a2.177,2.177,0,0,1,.888-.542,7.687,7.687,0,0,0,3.092-1.812A3.606,3.606,0,0,0,54.08,20.37a4.845,4.845,0,0,0-.677-3.381,10.119,10.119,0,0,0-2.48-2.3c-.121-.091-.151-.013-.17.1-.044.264-.109.525-.139.79a4.625,4.625,0,0,1-.99,2.339,6.375,6.375,0,0,1-2.835,1.945c-.811.323-1.639.606-2.448.933a1.15,1.15,0,0,1-.718.075,5.324,5.324,0,0,0-2.133-.113,4.472,4.472,0,0,0-1.484.649,2.167,2.167,0,0,1-2.131.158c-.385-.175-.766-.358-1.151-.534a2.378,2.378,0,0,0-2.074-.141.191.191,0,0,1-.224-.051,12.187,12.187,0,0,0-1.353-.906,8.944,8.944,0,0,1-1.11-.774,2.632,2.632,0,0,1-.987-1.97,13.017,13.017,0,0,1,.009-2.3c.019-.14-.009-.194-.158-.14-.251.09-.509.161-.756.259a3.851,3.851,0,0,0-1.808,1.317,3.746,3.746,0,0,0-.293,3.845.263.263,0,0,1-.015.317,1.141,1.141,0,0,0-.179.605,35.152,35.152,0,0,0-.126,3.961c.006.166-.037.236-.2.245a15.292,15.292,0,0,1-2.148.044,11.076,11.076,0,0,0-1.565-.121,1.471,1.471,0,0,0-.913.338.32.32,0,0,0-.1.39A3.847,3.847,0,0,0,24.006,27.8c.537.439,1.139.781,1.7,1.179.14.1.173.16.031.289-.429.391-.84.8-1.273,1.191-1.285,1.15-2.657,2.193-4.013,3.256a2.045,2.045,0,0,0-.808,1.783c.057,1.553.094,3.106.275,4.653a14.677,14.677,0,0,0,.582,3.04,9.2,9.2,0,0,0,2.057,3.479,6.756,6.756,0,0,0,2.485,1.507,18.7,18.7,0,0,0,6.759,1.14,22.267,22.267,0,0,0,2.5-.138,8.279,8.279,0,0,0,5.128-2.68,10.594,10.594,0,0,0,1.926-3.279c.606-1.394.976-2.869,1.489-4.295.686-1.906,1.461-3.78,2.043-5.724a.257.257,0,0,1,.1-.162,3.466,3.466,0,0,0,1.2-1.554c.111-.216.14-.57.356-.613s.408.239.612.377a8.653,8.653,0,0,0,2.946,1.407.632.632,0,0,0,.851-.627.372.372,0,0,1,.29-.381.593.593,0,0,1,.79.349,2.429,2.429,0,0,0,.6.916.342.342,0,0,0,.351.083,7.353,7.353,0,0,0,3.016-1.611,3.63,3.63,0,0,0,1.33-2.388,1.848,1.848,0,0,0-1.392-2.189M28.923,21.733l.049-.043-.049.043c.028.105.116.164.183.238-.068-.074-.155-.133-.183-.238l-.067-.076.067.076m2.729,7.34c-.05-.029-.085.005-.124.027.039-.022.075-.057.124-.027Z" fill="#fff"/>
    </g>
  </svg>
  