<svg xmlns="http://www.w3.org/2000/svg" xmlns:xlink="http://www.w3.org/1999/xlink" width="96.797" height="97.719" viewBox="0 0 96.797 97.719">
    <defs>
      <clipPath id="clip-path">
        <rect id="Rectángulo_47" data-name="Rectángulo 47" width="96.797" height="97.719" fill="none"/>
      </clipPath>
    </defs>
    <g id="Grupo_29" data-name="Grupo 29" clip-path="url(#clip-path)">
      <path id="Trazado_105" data-name="Trazado 105" d="M95.631,29.621l-6.545-1.687-3.358-.86q-.134,2.236-.424,4.447A69.025,69.025,0,0,1,61.07,75.849L48.4,86.217l-11.151-9.1-1.524-1.269c-.546-.459-1.084-.917-1.614-1.392L32.125,76.4l-4.019,3.914a89.278,89.278,0,0,1-28.04-68.5L21.667,0l1.753.95A51.354,51.354,0,0,0,48.4,7.133,51.345,51.345,0,0,0,73.378.95L75.131,0l21.6,11.817a89.273,89.273,0,0,1-1.1,17.8" fill="#20221d"/>
      <path id="Trazado_106" data-name="Trazado 106" d="M88.184,31.832l-.071.443A75.3,75.3,0,0,1,62.036,78.161L48.4,89.309,35.215,78.545l-4.656,4.538.339.292c.265.228.536.456.808.684l16.7,13.66,16.628-13.6A89.26,89.26,0,0,0,84.385,61.5a89.631,89.631,0,0,0,10.83-27.453l.082-.385Z" fill="#fdb54e"/>
      <path id="Trazado_107" data-name="Trazado 107" d="M70.332,33.582a11.862,11.862,0,0,0-2.786-.527,42.381,42.381,0,0,1-4.473-.523,4.243,4.243,0,0,1-1.741-.738c-.22-.168-.226-.3-.026-.5a2.738,2.738,0,0,1,1.116-.679,9.671,9.671,0,0,0,3.887-2.27,4.515,4.515,0,0,0,1.675-2.83,6.052,6.052,0,0,0-.851-4.235A12.7,12.7,0,0,0,64.016,18.4c-.152-.114-.19-.017-.213.122-.055.33-.137.657-.175.989a5.784,5.784,0,0,1-1.244,2.93,8.015,8.015,0,0,1-3.564,2.437c-1.02.4-2.06.759-3.078,1.169a1.45,1.45,0,0,1-.9.094A6.715,6.715,0,0,0,52.158,26a5.631,5.631,0,0,0-1.865.812,2.732,2.732,0,0,1-2.679.2c-.484-.219-.963-.449-1.447-.669a3,3,0,0,0-2.607-.177.241.241,0,0,1-.281-.063,15.325,15.325,0,0,0-1.7-1.135,11.245,11.245,0,0,1-1.4-.969,3.294,3.294,0,0,1-1.24-2.468,16.252,16.252,0,0,1,.011-2.885c.024-.176-.011-.243-.2-.176-.315.113-.639.2-.95.325a4.841,4.841,0,0,0-2.272,1.65,4.679,4.679,0,0,0-.369,4.816.328.328,0,0,1-.019.4,1.425,1.425,0,0,0-.225.758,43.888,43.888,0,0,0-.158,4.962c.007.208-.046.3-.257.307a19.29,19.29,0,0,1-2.7.056,13.97,13.97,0,0,0-1.968-.152,1.853,1.853,0,0,0-1.148.423.4.4,0,0,0-.125.488,4.819,4.819,0,0,0,1.617,2.332c.675.551,1.432.978,2.141,1.477.176.124.217.2.039.362-.54.49-1.056,1.007-1.6,1.492-1.616,1.441-3.34,2.748-5.045,4.079A2.559,2.559,0,0,0,24.7,44.469c.072,1.946.119,3.892.346,5.829a18.332,18.332,0,0,0,.732,3.808,11.523,11.523,0,0,0,2.586,4.359,8.5,8.5,0,0,0,3.125,1.887,23.586,23.586,0,0,0,8.5,1.429,28.088,28.088,0,0,0,3.148-.172,10.419,10.419,0,0,0,6.446-3.357A13.262,13.262,0,0,0,52,54.143c.762-1.746,1.227-3.594,1.872-5.38.862-2.388,1.837-4.736,2.568-7.171a.322.322,0,0,1,.122-.2,4.344,4.344,0,0,0,1.51-1.947c.139-.271.176-.715.448-.767s.513.3.77.473a10.893,10.893,0,0,0,3.7,1.763.794.794,0,0,0,1.07-.786.467.467,0,0,1,.364-.477.746.746,0,0,1,.993.437,3.042,3.042,0,0,0,.759,1.148.431.431,0,0,0,.441.1,9.253,9.253,0,0,0,3.791-2.018,4.544,4.544,0,0,0,1.672-2.992,2.315,2.315,0,0,0-1.75-2.743M36.359,27.227l.061-.054-.061.054c.035.132.145.206.23.3-.085-.092-.2-.167-.23-.3l-.084-.1.084.1m3.43,9.2c-.062-.036-.107.007-.156.034.049-.027.094-.071.156-.034Z" fill="#fff"/>
    </g>
  </svg>
  