<svg xmlns="http://www.w3.org/2000/svg" xmlns:xlink="http://www.w3.org/1999/xlink" width="107" height="97" viewBox="0 0 107 97">
    <defs>
      <clipPath id="clip-path">
        <rect id="Rectángulo_45" data-name="Rectángulo 45" width="107" height="97" fill="none"/>
      </clipPath>
    </defs>
    <g id="Grupo_25" data-name="Grupo 25" clip-path="url(#clip-path)">
      <path id="Trazado_93" data-name="Trazado 93" d="M78.038,10.986A69.379,69.379,0,0,0,65.163,22.458a27.591,27.591,0,0,0-2.471,3.4,7.575,7.575,0,0,1,4.423.443c.148-.172.3-.369.47-.566A69.477,69.477,0,0,1,80.928,14.014c.519-.369,1.038-.714,1.582-1.059a10.037,10.037,0,0,0-4.473-1.97" fill-rule="evenodd"/>
      <path id="Trazado_94" data-name="Trazado 94" d="M86.415,22.236v.074l-.667,5.416L82.485,53.7a10.289,10.289,0,0,1-2.941,5.957l-35.312,35.2a7.358,7.358,0,0,1-10.379,0L2.15,63.274a7.291,7.291,0,0,1,0-10.339L37.462,17.756a10.353,10.353,0,0,1,6.005-2.929l31.482-3.939a10,10,0,0,1,3.089.1A69.381,69.381,0,0,0,65.163,22.458a27.592,27.592,0,0,0-2.471,3.4,7.4,7.4,0,0,0-3.632,1.994A7.308,7.308,0,0,0,69.414,38.164a7.321,7.321,0,0,0,1.631-7.853,6.925,6.925,0,0,0-1.631-2.462,7.027,7.027,0,0,0-2.3-1.551c.148-.172.3-.369.47-.566A69.5,69.5,0,0,1,80.929,14.014c.519-.369,1.038-.714,1.582-1.059a10.743,10.743,0,0,1,.988.862,10.166,10.166,0,0,1,2.916,8.419" fill="#fff" fill-rule="evenodd"/>
      <path id="Trazado_95" data-name="Trazado 95" d="M106.356,1.8c-1.581-2.265-5.214-2.388-10.823-.419A73.811,73.811,0,0,0,79.125,10.2c-.371.246-.741.517-1.087.788A69.373,69.373,0,0,0,65.163,22.458a27.618,27.618,0,0,0-2.471,3.4C61.481,27.874,60.962,29.6,61.16,31a3.953,3.953,0,0,0,.618,2.954,4.311,4.311,0,0,0,.42.517c1.606,1.575,4.671,1.7,9.143.271a7.168,7.168,0,0,0-.3-4.431c-4.621,1.526-6.326.985-6.647.615A13.625,13.625,0,0,1,67.115,26.3c.148-.172.3-.369.47-.566A69.477,69.477,0,0,1,80.929,14.014c.519-.369,1.038-.714,1.581-1.059A66.413,66.413,0,0,1,96.571,5.619c4.868-1.723,6.746-1.206,7.141-.837a.086.086,0,0,0,.025.049l.025.025c-.815,2.88-5.955,9.5-16.581,16.863-.247.172-.519.345-.766.517v.074l-.667,5.416c1.087-.69,2.175-1.4,3.262-2.166,9.613-6.671,18.632-15.583,17.94-20.851a3.988,3.988,0,0,0-.593-2.905" fill="#fdb54e"/>
      <path id="Trazado_96" data-name="Trazado 96" d="M61.067,51.989a8.92,8.92,0,0,0-2.082-.39,31.977,31.977,0,0,1-3.343-.388,3.179,3.179,0,0,1-1.3-.547c-.165-.125-.169-.224-.02-.367a2.051,2.051,0,0,1,.834-.5,7.242,7.242,0,0,0,2.9-1.682,3.339,3.339,0,0,0,1.252-2.1,4.452,4.452,0,0,0-.636-3.138,9.464,9.464,0,0,0-2.329-2.139c-.114-.084-.142-.013-.159.09-.041.245-.1.487-.131.733a4.267,4.267,0,0,1-.93,2.171,6,6,0,0,1-2.664,1.806c-.762.3-1.54.562-2.3.866a1.09,1.09,0,0,1-.675.069,5.058,5.058,0,0,0-2-.105,4.224,4.224,0,0,0-1.394.6,2.055,2.055,0,0,1-2,.146c-.362-.162-.72-.332-1.081-.5a2.258,2.258,0,0,0-1.948-.131.182.182,0,0,1-.21-.047,11.418,11.418,0,0,0-1.272-.842,8.418,8.418,0,0,1-1.043-.718,2.434,2.434,0,0,1-.927-1.829,11.933,11.933,0,0,1,.008-2.138c.018-.13-.008-.18-.148-.13-.235.084-.478.149-.71.241a3.619,3.619,0,0,0-1.7,1.222,3.443,3.443,0,0,0-.276,3.569.242.242,0,0,1-.014.295,1.049,1.049,0,0,0-.168.562,32.185,32.185,0,0,0-.118,3.677c.005.154-.035.219-.193.227a14.57,14.57,0,0,1-2.018.041,10.518,10.518,0,0,0-1.47-.112,1.393,1.393,0,0,0-.858.314.3.3,0,0,0-.093.362,3.573,3.573,0,0,0,1.208,1.728c.5.408,1.07.725,1.6,1.095.132.092.162.149.029.268-.4.363-.789.746-1.2,1.105-1.208,1.068-2.5,2.036-3.77,3.023a1.89,1.89,0,0,0-.759,1.655c.054,1.442.089,2.884.259,4.32a13.5,13.5,0,0,0,.547,2.822,8.524,8.524,0,0,0,1.933,3.23,6.364,6.364,0,0,0,2.335,1.4,17.768,17.768,0,0,0,6.35,1.059,21.243,21.243,0,0,0,2.353-.128,7.808,7.808,0,0,0,4.818-2.488,9.812,9.812,0,0,0,1.809-3.044c.57-1.294.917-2.663,1.4-3.987.644-1.769,1.373-3.509,1.919-5.314a.238.238,0,0,1,.091-.151A3.222,3.222,0,0,0,51.9,56.331c.1-.2.131-.53.335-.569s.383.222.575.35a8.178,8.178,0,0,0,2.768,1.307.592.592,0,0,0,.8-.582.347.347,0,0,1,.273-.354.559.559,0,0,1,.742.324,2.261,2.261,0,0,0,.567.851.324.324,0,0,0,.33.077,6.937,6.937,0,0,0,2.833-1.5,3.362,3.362,0,0,0,1.25-2.217,1.716,1.716,0,0,0-1.308-2.032M35.677,47.28l.046-.04-.046.04c.026.1.109.152.172.221-.064-.069-.146-.123-.172-.221l-.063-.07.063.07m2.563,6.814c-.047-.027-.08.005-.117.025.037-.02.07-.052.117-.025Z" fill="#20221d"/>
    </g>
  </svg>
  