<svg xmlns="http://www.w3.org/2000/svg" xmlns:xlink="http://www.w3.org/1999/xlink" width="84" height="76" viewBox="0 0 84 76">
    <defs>
      <clipPath id="clip-path">
        <rect id="Rectángulo_21" data-name="Rectángulo 21" width="84" height="76" fill="none"/>
      </clipPath>
    </defs>
    <g id="Grupo_9" data-name="Grupo 9" clip-path="url(#clip-path)">
      <path id="Trazado_58" data-name="Trazado 58" d="M61.263,8.608A54.43,54.43,0,0,0,51.156,17.6a21.62,21.62,0,0,0-1.94,2.662,5.958,5.958,0,0,1,3.473.347c.116-.135.233-.289.369-.444A54.509,54.509,0,0,1,63.533,10.98c.407-.289.815-.559,1.242-.829a7.887,7.887,0,0,0-3.511-1.543" fill-rule="evenodd"/>
      <path id="Trazado_59" data-name="Trazado 59" d="M67.839,17.422v.058l-.524,4.243L64.755,42.072a8.056,8.056,0,0,1-2.309,4.668L34.725,74.322a5.785,5.785,0,0,1-8.148,0L1.688,49.575a5.7,5.7,0,0,1,0-8.1L29.409,13.912a8.134,8.134,0,0,1,4.714-2.3L58.838,8.53a7.863,7.863,0,0,1,2.425.077A54.431,54.431,0,0,0,51.156,17.6a21.62,21.62,0,0,0-1.94,2.662,5.809,5.809,0,0,0-2.852,1.562,5.681,5.681,0,0,0,0,8.082,5.761,5.761,0,0,0,8.128,0,5.728,5.728,0,0,0,1.28-6.153,5.425,5.425,0,0,0-1.28-1.929,5.517,5.517,0,0,0-1.8-1.215c.116-.135.233-.289.369-.444A54.525,54.525,0,0,1,63.533,10.98c.407-.289.815-.559,1.242-.829a8.428,8.428,0,0,1,.776.675,7.956,7.956,0,0,1,2.289,6.6" fill="#20221d" fill-rule="evenodd"/>
      <path id="Trazado_60" data-name="Trazado 60" d="M83.495,1.413C82.253-.361,79.4-.458,75,1.085A57.983,57.983,0,0,0,62.117,7.99c-.291.193-.582.405-.853.617A54.425,54.425,0,0,0,51.156,17.6a21.641,21.641,0,0,0-1.94,2.662,6.454,6.454,0,0,0-1.2,4.031A3.092,3.092,0,0,0,48.5,26.6a3.379,3.379,0,0,0,.33.405c1.261,1.234,3.667,1.331,7.178.212a5.606,5.606,0,0,0-.233-3.472c-3.628,1.2-4.966.772-5.218.482A10.67,10.67,0,0,1,52.689,20.6c.116-.135.233-.289.369-.444A54.509,54.509,0,0,1,63.533,10.98c.407-.289.815-.559,1.242-.829A52.174,52.174,0,0,1,75.813,4.4c3.822-1.35,5.3-.945,5.606-.656a.067.067,0,0,0,.019.039l.02.019c-.64,2.257-4.675,7.445-13.017,13.212-.194.135-.407.27-.6.405v.058l-.524,4.244c.854-.54,1.707-1.1,2.561-1.7C77.423,14.8,84.5,7.817,83.96,3.689a3.119,3.119,0,0,0-.466-2.276" fill="#fdb54e"/>
      <path id="Trazado_61" data-name="Trazado 61" d="M46.817,40.734a7.015,7.015,0,0,0-1.634-.306,25.157,25.157,0,0,1-2.625-.3,2.5,2.5,0,0,1-1.021-.429c-.129-.1-.133-.176-.015-.288a1.611,1.611,0,0,1,.655-.394,5.688,5.688,0,0,0,2.28-1.318,2.618,2.618,0,0,0,.983-1.643,3.484,3.484,0,0,0-.5-2.459,7.425,7.425,0,0,0-1.829-1.676c-.089-.066-.111-.01-.125.071-.032.192-.081.381-.1.574a3.34,3.34,0,0,1-.73,1.7,4.706,4.706,0,0,1-2.091,1.415c-.6.235-1.209.441-1.806.679a.857.857,0,0,1-.53.054,3.978,3.978,0,0,0-1.573-.082,3.316,3.316,0,0,0-1.094.472,1.617,1.617,0,0,1-1.571.115c-.284-.127-.565-.26-.849-.389a1.776,1.776,0,0,0-1.529-.1.143.143,0,0,1-.165-.037,8.984,8.984,0,0,0-1-.659,6.594,6.594,0,0,1-.819-.563,1.906,1.906,0,0,1-.728-1.433,9.331,9.331,0,0,1,.006-1.675c.014-.1-.006-.141-.116-.1-.185.066-.375.117-.558.189A2.841,2.841,0,0,0,26.4,33.1a2.693,2.693,0,0,0-.216,2.8.189.189,0,0,1-.011.231.823.823,0,0,0-.132.44,25.221,25.221,0,0,0-.093,2.881c0,.121-.027.171-.151.178a11.46,11.46,0,0,1-1.585.032,8.271,8.271,0,0,0-1.154-.088,1.1,1.1,0,0,0-.674.246.231.231,0,0,0-.073.283,2.8,2.8,0,0,0,.948,1.354c.4.32.84.568,1.256.858.1.072.127.117.023.21-.317.285-.619.584-.938.866-.948.837-1.96,1.6-2.96,2.369a1.479,1.479,0,0,0-.6,1.3c.042,1.13.07,2.26.2,3.384a10.556,10.556,0,0,0,.429,2.211,6.679,6.679,0,0,0,1.517,2.531,5,5,0,0,0,1.833,1.1,13.972,13.972,0,0,0,4.985.83,16.716,16.716,0,0,0,1.847-.1,6.133,6.133,0,0,0,3.782-1.949,7.685,7.685,0,0,0,1.42-2.385c.447-1.014.72-2.087,1.1-3.124.506-1.386,1.077-2.749,1.507-4.163a.186.186,0,0,1,.071-.118,2.525,2.525,0,0,0,.886-1.13c.081-.157.1-.415.263-.446s.3.174.451.274a6.424,6.424,0,0,0,2.173,1.024.465.465,0,0,0,.628-.456.272.272,0,0,1,.214-.277.439.439,0,0,1,.583.254,1.766,1.766,0,0,0,.445.666.255.255,0,0,0,.259.06,5.449,5.449,0,0,0,2.224-1.172,2.632,2.632,0,0,0,.981-1.737,1.344,1.344,0,0,0-1.027-1.592m-19.932-3.69.036-.031-.036.031c.021.076.085.119.135.173-.05-.054-.115-.1-.135-.173l-.05-.055.05.055M28.9,42.383c-.037-.021-.063,0-.092.019.029-.015.055-.041.092-.02Z" fill="#fff"/>
    </g>
  </svg>
  